<?xml version="1.0" encoding="utf-8"?>
<!-- Generator: Adobe Illustrator 16.0.0, SVG Export Plug-In . SVG Version: 6.00 Build 0)  -->
<!DOCTYPE svg PUBLIC "-//W3C//DTD SVG 1.1//EN" "http://www.w3.org/Graphics/SVG/1.1/DTD/svg11.dtd">
<svg version="1.1" id="Layer_1" xmlns="http://www.w3.org/2000/svg" xmlns:xlink="http://www.w3.org/1999/xlink" x="0px" y="0px"
	 width="467.392px" height="601.087px" viewBox="0 0 467.392 601.087" enable-background="new 0 0 467.392 601.087"
	 xml:space="preserve">
<g>
	<polygon points="466.859,600.605 466.859,0.605 0.192,0.605 0.192,600.605 466.859,600.605 	"/>
	<path d="M233.614,300.694"/>
	<path d="M114.148,109.05c2.467,0.026,4.308-1.751,4.267-4.267l0,0l1.245-11.556l1.244,11.556l0,0
		c-0.028,2.547,1.739,4.286,4.267,4.267l0,0l11.556,1.245l-11.556,1.245l0,0c-2.527-0.054-4.309,1.818-4.267,4.267l0,0
		l-1.244,11.556l-1.245-11.556l0,0c0.051-2.448-1.733-4.321-4.267-4.267l0,0l-11.556-1.245L114.148,109.05L114.148,109.05
		L114.148,109.05z"/>
	<path fill="#1C1C1C" d="M135.125,110.294l-10.489,1.066l0,0c-2.254,0.038-3.873,1.74-3.911,3.912l0,0l-1.066,10.488l-1.067-10.488
		l0,0c-0.005-2.172-1.626-3.874-3.911-3.912l0,0l-10.489-1.066l10.489-1.067l0,0c2.224-0.018,3.896-1.634,3.911-3.911l0,0
		l1.067-10.489l1.066,10.489l0,0c0.051,2.308,1.657,3.887,3.911,3.911l0,0L135.125,110.294L135.125,110.294z"/>
	<path fill="#393939" d="M133.704,110.294l-9.6,1.066l0,0c-1.981-0.048-3.437,1.482-3.378,3.556l0,0l-1.066,9.422l-0.889-9.422l0,0
		c-0.062-2.073-1.521-3.604-3.555-3.556l0,0l-9.423-1.066l9.423-0.889l0,0c1.981-0.062,3.485-1.516,3.555-3.555l0,0l0.889-9.422
		l1.066,9.422l0,0c-0.047,2.066,1.397,3.487,3.378,3.555l0,0L133.704,110.294L133.704,110.294z"/>
	<path fill="#555555" d="M132.104,110.294l-8.355,0.889l0,0c-1.886,0.044-3.179,1.403-3.2,3.2l0,0l-0.889,8.355l-0.889-8.355l0,0
		c0.06-1.797-1.236-3.157-3.022-3.2l0,0l-8.533-0.889l8.533-0.889l0,0c1.739,0.072,3.075-1.219,3.022-3.022l0,0l0.889-8.355
		l0.889,8.355l0,0c0.032,1.827,1.314,3.089,3.2,3.022l0,0L132.104,110.294L132.104,110.294z"/>
	<path fill="#717171" d="M130.503,110.294l-7.289,0.889l0,0c-1.611-0.042-2.742,1.146-2.667,2.667l0,0l-0.889,7.29l-0.711-7.29l0,0
		c0.004-1.521-1.13-2.709-2.667-2.667l0,0l-7.467-0.889l7.467-0.711l0,0c1.496,0.027,2.664-1.102,2.667-2.667l0,0l0.711-7.467
		l0.889,7.467l0,0c-0.066,1.587,1.056,2.689,2.667,2.667l0,0L130.503,110.294L130.503,110.294z"/>
	<path fill="#8E8E8E" d="M129.081,110.472l-6.4,0.533l0,0c-1.338,0.049-2.306,1.067-2.311,2.489l0,0l-0.711,6.223l-0.534-6.223l0,0
		c-0.052-1.422-1.023-2.44-2.311-2.489l0,0l-6.4-0.533l6.222-0.711l0,0c1.43-0.016,2.43-0.982,2.489-2.311l0,0l0.534-6.4l0.711,6.4
		l0,0c0.013,1.346,0.973,2.291,2.311,2.311l0,0L129.081,110.472L129.081,110.472z"/>
	<path fill="#AAAAAA" d="M127.481,110.472l-5.333,0.533l0,0c-1.064-0.037-1.871,0.81-1.956,1.956l0,0l-0.533,5.156l-0.534-5.156l0,0
		c0.069-1.146-0.738-1.992-1.778-1.956l0,0l-5.333-0.533l5.155-0.533l0,0c1.188-0.06,2.02-0.865,1.956-1.956l0,0l0.534-5.333
		l0.711,5.333l0,0c-0.086,1.106,0.713,1.892,1.778,1.956l0,0L127.481,110.472L127.481,110.472z"/>
	<path fill="#C6C6C6" d="M125.881,110.472l-4.089,0.356l0,0c-0.969,0.054-1.612,0.731-1.6,1.6l0,0l-0.355,4.267l-0.533-4.267l0,0
		c0.011-0.869-0.633-1.545-1.6-1.6l0,0l-4.089-0.356l4.089-0.533l0,0c0.944,0.073,1.608-0.568,1.6-1.422l0,0l0.533-4.267
		l0.355,4.267l0,0c-0.007,0.866,0.632,1.493,1.6,1.422l0,0L125.881,110.472L125.881,110.472z"/>
	<path fill="#E2E2E2" d="M124.459,110.472l-3.2,0.356l0,0c-0.695-0.032-1.175,0.474-1.244,1.066l0,0l-0.178,3.2l-0.356-3.2l0,0
		c-0.044-0.593-0.526-1.099-1.245-1.066l0,0l-3.021-0.356l3.021-0.356l0,0c0.701,0.03,1.198-0.45,1.245-1.066l0,0l0.356-3.2
		l0.178,3.2l0,0c0.072,0.625,0.549,1.094,1.244,1.066l0,0L124.459,110.472L124.459,110.472z"/>
	<path fill="#FFFFFF" d="M118.77,110.294c0.458-0.015,0.787-0.332,0.711-0.711l0,0l0.356-2.133l0.178,2.133l0,0
		c-0.026,0.385,0.289,0.695,0.711,0.711l0,0l2.133,0.178l-2.133,0.178l0,0c-0.422,0.06-0.739,0.395-0.711,0.889l0,0l-0.178,1.955
		l-0.356-1.955l0,0c0.077-0.494-0.242-0.829-0.711-0.889l0,0l-2.133-0.178L118.77,110.294L118.77,110.294L118.77,110.294z"/>
	<path d="M330.858,93.228c9.955-0.036,17.338-7.171,17.424-17.066l0,0l4.799-46.756l4.8,46.756l0,0
		c0.026,10.027,7.12,17.002,17.067,17.066l0,0l46.755,4.8l-46.755,4.8l0,0c-9.949,0.033-17.096,7.547-17.067,17.6l0,0l-4.8,46.222
		l-4.799-46.222l0,0c-0.044-10.053-7.207-17.568-17.246-17.6l0,0l-46.577-4.8L330.858,93.228L330.858,93.228L330.858,93.228z"/>
	<path fill="#101010" d="M418.147,98.028l-44.267,4.622l0,0c-9.468,0.017-16.249,7.146-16.178,16.533l0,0l-4.622,43.911
		l-4.623-43.911l0,0c0.054-9.388-6.74-16.519-16.178-16.533l0,0l-44.267-4.622l44.091-4.623l0,0
		c9.364,0.088,16.368-6.68,16.354-16.178l0,0l4.623-44.267l4.622,44.445l0,0c-0.019,9.444,6.71,16.061,16.178,16l0,0L418.147,98.028
		L418.147,98.028z"/>
	<path fill="#202020" d="M414.593,98.206l-41.778,4.267l0,0c-8.987,0-15.4,6.743-15.468,15.645l0,0l-4.266,41.6l-4.267-41.6l0,0
		c-0.028-8.901-6.454-15.646-15.466-15.645l0,0l-41.778-4.267l41.6-4.444l0,0c8.953,0.035,15.579-6.368,15.645-15.289l0,0
		l4.267-41.956l4.444,42.133l0,0c-0.063,8.862,6.302,15.12,15.289,15.111l0,0L414.593,98.206L414.593,98.206z"/>
	<path fill="#303030" d="M411.214,98.206l-39.466,4.088l0,0c-8.509-0.017-14.555,6.341-14.577,14.756l0,0l-4.09,39.111
		l-4.089-39.111l0,0c0.067-8.415-5.991-14.773-14.399-14.756l0,0l-39.468-4.088l39.29-4.089l0,0
		c8.363-0.019,14.61-6.055,14.577-14.399l0,0l4.089-39.645l4.09,39.645l0,0c0.069,8.457,6.068,14.357,14.577,14.399l0,0
		L411.214,98.206L411.214,98.206z"/>
	<path fill="#404040" d="M407.659,98.206l-37.155,3.911l0,0c-7.851-0.033-13.53,5.938-13.511,13.867l0,0l-3.912,36.8l-3.733-36.8
		l0,0c-0.013-7.929-5.704-13.901-13.688-13.867l0,0l-36.979-3.911l36.8-3.733l0,0c7.954-0.073,13.821-5.742,13.867-13.689l0,0
		l3.733-36.978l3.912,37.156l0,0c0.025,7.874,5.66,13.417,13.511,13.333l0,0L407.659,98.206L407.659,98.206z"/>
	<path fill="#505050" d="M404.104,98.206l-34.667,3.733l0,0c-7.369-0.05-12.683,5.535-12.622,12.978l0,0l-3.556,34.311
		l-3.732-34.311l0,0c0.082-7.442-5.242-13.029-12.623-12.978l0,0l-34.666-3.733l34.487-3.556l0,0
		c7.364,0.052,12.854-5.251,12.802-12.622l0,0l3.732-34.667l3.556,34.667l0,0c-0.019,7.469,5.253,12.653,12.622,12.622l0,0
		L404.104,98.206L404.104,98.206z"/>
	<path fill="#606060" d="M400.726,98.383l-32.355,3.378l0,0c-6.89-0.067-11.835,5.133-11.911,12.088l0,0l-3.2,32l-3.377-32l0,0
		c0.002-6.955-4.955-12.156-11.911-12.088l0,0l-32.179-3.378l32.001-3.378l0,0c6.951-0.001,12.062-4.938,12.089-11.911l0,0
		l3.377-32.178l3.378,32.356l0,0c-0.063,6.886,4.844,11.711,11.733,11.733l0,0L400.726,98.383L400.726,98.383z"/>
	<path fill="#6F6F6F" d="M397.171,98.383l-29.867,3.2l0,0c-6.409-0.083-10.988,4.731-11.022,11.2l0,0l-3.022,29.511l-3.022-29.511
		l0,0c-0.079-6.469-4.667-11.284-11.021-11.2l0,0l-29.867-3.2l29.689-3.022l0,0c6.362-0.055,11.094-4.625,11.021-11.022l0,0
		l3.2-29.867l3.022,30.044l0,0c0.069,6.303,4.613,10.771,11.022,10.844l0,0L397.171,98.383L397.171,98.383z"/>
	<path fill="#808080" d="M393.614,98.383l-27.378,2.844l0,0c-5.928,0.079-10.141,4.507-10.134,10.312l0,0l-2.844,27.378
		l-2.845-27.378l0,0c0.017-5.805-4.204-10.234-10.133-10.312l0,0l-27.379-2.844l27.201-2.844l0,0
		c5.952,0.068,10.304-4.136,10.311-9.956l0,0l2.845-27.556l2.844,27.556l0,0c0.026,5.897,4.206,10.008,10.134,9.956l0,0
		L393.614,98.383L393.614,98.383z"/>
	<path fill="#8F8F8F" d="M390.236,98.561l-25.066,2.489l0,0c-5.448,0.062-9.293,4.104-9.245,9.422l0,0l-2.666,24.889l-2.488-24.889
		l0,0c-0.065-5.318-3.918-9.361-9.245-9.422l0,0l-25.066-2.489l24.889-2.667l0,0c5.363,0.016,9.334-3.822,9.423-9.245l0,0
		l2.488-25.067l2.666,25.245l0,0c-0.019,5.315,3.797,9.067,9.245,9.067l0,0L390.236,98.561L390.236,98.561z"/>
	<path fill="#9F9F9F" d="M386.682,98.561l-22.756,2.311l0,0c-4.79,0.045-8.269,3.702-8.355,8.533l0,0l-2.312,22.578l-2.311-22.578
		l0,0c0.03-4.832-3.455-8.489-8.356-8.533l0,0l-22.577-2.311l22.577-2.311l0,0c4.774-0.038,8.366-3.509,8.356-8.356l0,0
		l2.311-22.755l2.489,22.755l0,0c-0.063,4.911,3.388,8.304,8.178,8.356l0,0L386.682,98.561L386.682,98.561z"/>
	<path fill="#AFAFAF" d="M383.126,98.561l-20.267,2.133l0,0c-4.312,0.028-7.422,3.299-7.467,7.645l0,0l-2.134,20.089l-1.955-20.089
		l0,0c-0.051-4.345-3.168-7.616-7.467-7.645l0,0l-20.268-2.133l20.09-2.133l0,0c4.362,0.087,7.575-3.019,7.645-7.289l0,0
		l1.955-20.444l2.134,20.444l0,0c0.069,4.327,3.155,7.363,7.467,7.289l0,0L383.126,98.561L383.126,98.561z"/>
	<path fill="#BFBFBF" d="M379.747,98.739l-17.955,1.778l0,0c-3.83,0.012-6.574,2.897-6.577,6.755l0,0l-1.778,17.778l-1.956-17.778
		l0,0c0.046-3.858-2.702-6.744-6.577-6.755l0,0l-17.777-1.778l17.777-1.956l0,0c3.773,0.033,6.607-2.706,6.577-6.578l0,0
		l1.956-17.956l1.778,18.133l0,0c0.024,3.744,2.747,6.422,6.577,6.4l0,0L379.747,98.739L379.747,98.739z"/>
	<path fill="#CFCFCF" d="M376.192,98.739l-15.467,1.6l0,0c-3.35-0.004-5.729,2.495-5.689,5.867l0,0l-1.6,15.289l-1.6-15.289l0,0
		c-0.035-3.372-2.418-5.872-5.689-5.867l0,0l-15.644-1.6l15.466-1.6l0,0c3.362-0.021,5.817-2.394,5.867-5.688l0,0l1.6-15.467
		l1.6,15.467l0,0c-0.02,3.339,2.34,5.658,5.689,5.688l0,0L376.192,98.739L376.192,98.739z"/>
	<path fill="#DFDFDF" d="M372.637,98.739l-12.978,1.422l0,0c-2.87-0.021-4.88,2.093-4.801,4.978l0,0l-1.422,12.978l-1.422-12.978
		l0,0c0.061-2.885-1.953-4.999-4.801-4.978l0,0l-13.155-1.422l13.155-1.244l0,0c2.773-0.074,4.85-2.081,4.801-4.8l0,0l1.422-13.155
		l1.422,13.155l0,0c-0.063,2.756,1.931,4.718,4.801,4.8l0,0L372.637,98.739L372.637,98.739z"/>
	<path fill="#EFEFEF" d="M369.259,98.917l-10.844,1.066l0,0c-2.212-0.038-3.855,1.689-3.912,3.911l0,0l-1.066,10.667l-1.066-10.667
		l0,0c-0.021-2.222-1.668-3.95-3.912-3.911l0,0l-10.844-1.066l10.668-1.245l0,0c2.359,0.05,4.058-1.59,4.088-3.911l0,0l1.066-10.667
		l1.066,10.667l0,0c0.069,2.351,1.7,3.955,3.912,3.911l0,0L369.259,98.917L369.259,98.917z"/>
	<path fill="#FFFFFF" d="M349.526,98.028c1.771-0.003,3.09-1.277,3.021-3.022l0,0l0.889-8.355l0.89,8.355l0,0
		c0.023,1.769,1.291,3.014,3.021,3.022l0,0l8.357,0.889l-8.357,0.889l0,0c-1.729-0.054-3.006,1.287-3.021,3.022l0,0l-0.89,8.355
		l-0.889-8.355l0,0c0.075-1.735-1.203-3.077-3.021-3.022l0,0l-8.357-0.889L349.526,98.028L349.526,98.028L349.526,98.028z"/>
	<path d="M293.526,150.294c2.208,0.003,3.859-1.593,3.91-3.911l0,0l1.066-10.311l1.066,10.489l0,0
		c-0.01,2.17,1.577,3.73,3.734,3.733l0,0l10.488,1.066l-10.488,1.067l0,0c-2.157,0.032-3.756,1.714-3.734,3.911l0,0l-1.066,10.311
		l-1.066-10.311l0,0c-0.04-2.197-1.644-3.879-3.91-3.911l0,0l-10.312-1.067L293.526,150.294L293.526,150.294L293.526,150.294z"/>
	<path fill="#1C1C1C" d="M312.37,151.361l-9.423,1.067l0,0c-2.034-0.044-3.488,1.483-3.555,3.556l0,0l-0.89,9.422l-1.066-9.422l0,0
		c0.068-2.072-1.387-3.6-3.378-3.556l0,0l-9.6-1.067l9.422-0.889l0,0c2.115-0.055,3.615-1.505,3.556-3.556l0,0l1.066-9.422
		l0.89,9.422l0,0c0.078,2.077,1.521,3.495,3.555,3.556l0,0L312.37,151.361L312.37,151.361z"/>
	<path fill="#393939" d="M310.948,151.361l-8.533,0.889l0,0c-1.736,0.056-3.043,1.43-3.022,3.2l0,0l-0.89,8.533l-0.889-8.533l0,0
		c-0.001-1.77-1.311-3.145-3.199-3.2l0,0l-8.533-0.889l8.533-0.889l0,0c1.841,0.065,3.191-1.239,3.199-3.022l0,0l0.889-8.533
		l0.89,8.533l0,0c-0.01,1.807,1.286,3.082,3.022,3.022l0,0L310.948,151.361L310.948,151.361z"/>
	<path fill="#555555" d="M309.704,151.361l-7.645,0.889l0,0c-1.613-0.021-2.775,1.2-2.845,2.844l0,0l-0.712,7.467l-0.71-7.467l0,0
		c-0.069-1.644-1.233-2.866-2.845-2.844l0,0l-7.645-0.889l7.645-0.711l0,0c1.568,0.008,2.768-1.151,2.845-2.844l0,0l0.71-7.467
		l0.712,7.645l0,0c0.079,1.537,1.231,2.669,2.845,2.667l0,0L309.704,151.361L309.704,151.361z"/>
	<path fill="#717171" d="M308.282,151.539l-6.579,0.533l0,0c-1.49,0.079-2.506,1.146-2.488,2.489l0,0l-0.712,6.578l-0.71-6.578l0,0
		c0.039-1.342-0.979-2.41-2.313-2.489l0,0l-6.755-0.533l6.577-0.711l0,0c1.475-0.05,2.523-1.063,2.49-2.489l0,0l0.71-6.578
		l0.712,6.578l0,0c-0.009,1.444,0.998,2.435,2.488,2.489l0,0L308.282,151.539L308.282,151.539z"/>
	<path fill="#8E8E8E" d="M306.859,151.539l-5.69,0.533l0,0c-1.188,0.002-2.059,0.917-2.132,2.133l0,0l-0.534,5.689l-0.532-5.689l0,0
		c-0.029-1.217-0.901-2.132-2.134-2.133l0,0l-5.688-0.533l5.688-0.711l0,0c1.2,0.07,2.099-0.798,2.134-1.956l0,0l0.532-5.689
		l0.534,5.689l0,0c0.081,1.174,0.943,2.022,2.132,1.956l0,0L306.859,151.539L306.859,151.539z"/>
	<path fill="#AAAAAA" d="M305.438,151.539l-4.622,0.533l0,0c-1.069-0.076-1.791,0.685-1.778,1.777l0,0l-0.534,4.623l-0.532-4.623
		l0,0c0.079-1.092-0.646-1.853-1.601-1.777l0,0l-4.8-0.533l4.8-0.534l0,0c0.93,0.013,1.676-0.709,1.601-1.778l0,0l0.532-4.622
		l0.534,4.622l0,0c-0.009,1.082,0.709,1.788,1.778,1.778l0,0L305.438,151.539L305.438,151.539z"/>
	<path fill="#C6C6C6" d="M304.014,151.539l-3.732,0.355l0,0c-0.769,0.025-1.346,0.633-1.422,1.422l0,0l-0.356,3.733l-0.355-3.733
		l0,0c0.012-0.79-0.567-1.397-1.423-1.422l0,0l-3.732-0.355l3.732-0.356l0,0c0.835-0.045,1.432-0.622,1.423-1.422l0,0l0.355-3.733
		l0.356,3.733l0,0c0.081,0.812,0.653,1.375,1.422,1.422l0,0L304.014,151.539L304.014,151.539z"/>
	<path fill="#E2E2E2" d="M302.77,151.539l-2.845,0.355l0,0c-0.645-0.052-1.076,0.401-1.065,1.066l0,0l-0.356,2.667l-0.178-2.667l0,0
		c-0.057-0.665-0.489-1.119-1.066-1.066l0,0l-2.844-0.355l2.844-0.356l0,0c0.562,0.076,1.007-0.355,1.066-0.889l0,0l0.178-2.844
		l0.356,2.844l0,0c-0.008,0.542,0.421,0.962,1.065,0.889l0,0L302.77,151.539L302.77,151.539z"/>
	<path fill="#FFFFFF" d="M297.614,151.361c0.467,0.018,0.762-0.267,0.711-0.711l0,0l0.178-1.778l0.178,1.778l0,0
		c0.083,0.449,0.366,0.728,0.712,0.711l0,0l1.955,0.178l-1.955,0.178l0,0c-0.346,0.048-0.632,0.349-0.712,0.711l0,0l-0.178,1.956
		l-0.178-1.956l0,0c0.052-0.362-0.234-0.663-0.711-0.711l0,0l-1.777-0.178L297.614,151.361L297.614,151.361L297.614,151.361z"/>
	<path d="M77.881,62.65c3.625-0.075,6.343-2.702,6.4-6.4l0,0l1.777-17.067l1.778,17.067l0,0c-0.038,3.747,2.574,6.314,6.223,6.4l0,0
		l17.244,1.778l-17.244,1.778l0,0c-3.649-0.071-6.28,2.696-6.223,6.4l0,0l-1.778,17.066l-1.777-17.066l0,0
		c-0.042-3.704-2.679-6.472-6.4-6.4l0,0l-17.066-1.778L77.881,62.65L77.881,62.65L77.881,62.65z"/>
	<path fill="#1C1C1C" d="M108.992,64.428l-15.644,1.6l0,0c-3.322-0.021-5.713,2.494-5.689,5.867l0,0l-1.601,15.467l-1.6-15.467l0,0
		c-0.04-3.373-2.437-5.887-5.689-5.867l0,0l-15.645-1.6l15.467-1.6l0,0c3.342-0.055,5.813-2.442,5.867-5.689l0,0l1.6-15.644
		l1.601,15.644l0,0c-0.005,3.292,2.367,5.625,5.689,5.689l0,0L108.992,64.428L108.992,64.428z"/>
	<path fill="#393939" d="M106.681,64.428L92.637,65.85l0,0c-2.994,0.03-5.146,2.292-5.155,5.333l0,0L86.059,85.05l-1.422-13.867l0,0
		c-0.039-3.041-2.194-5.303-5.156-5.333l0,0l-14.044-1.422l13.867-1.422l0,0c3.06-0.036,5.282-2.182,5.333-5.156l0,0l1.422-14.044
		l1.423,14.044l0,0c0.026,3.013,2.161,5.112,5.155,5.156l0,0L106.681,64.428L106.681,64.428z"/>
	<path fill="#555555" d="M104.37,64.428l-12.444,1.244l0,0c-2.667,0.081-4.578,2.09-4.623,4.8l0,0l-1.245,12.267l-1.244-12.267l0,0
		c-0.037-2.71-1.952-4.72-4.622-4.8l0,0l-12.444-1.244l12.444-1.245l0,0c2.6-0.016,4.574-1.922,4.622-4.622l0,0l1.244-12.444
		l1.245,12.444l0,0c0.06,2.735,1.956,4.6,4.623,4.622l0,0L104.37,64.428L104.37,64.428z"/>
	<path fill="#717171" d="M102.059,64.428l-10.845,1.244l0,0c-2.34-0.046-4.01,1.71-4.089,4.089l0,0l-1.067,10.845l-1.066-10.845l0,0
		c-0.036-2.379-1.71-4.135-4.089-4.089l0,0l-10.844-1.244l10.844-1.066l0,0c2.318,0.004,4.043-1.663,4.089-3.912l0,0l1.066-11.022
		l1.245,11.022l0,0c-0.086,2.279,1.571,3.909,3.911,3.912l0,0L102.059,64.428L102.059,64.428z"/>
	<path fill="#8E8E8E" d="M99.748,64.605l-9.244,0.889l0,0c-2.013,0.003-3.443,1.508-3.378,3.555l0,0l-1.067,9.245L85.17,69.05l0,0
		c-0.034-2.047-1.467-3.552-3.377-3.555l0,0l-9.422-0.889l9.244-1.067l0,0c2.036,0.025,3.514-1.403,3.556-3.377l0,0l0.889-9.422
		l1.067,9.422l0,0c-0.054,2,1.365,3.396,3.378,3.377l0,0L99.748,64.605L99.748,64.605z"/>
	<path fill="#AAAAAA" d="M97.614,64.605l-7.822,0.711l0,0c-1.685,0.055-2.875,1.306-2.844,3.022l0,0l-0.889,7.645l-0.711-7.645l0,0
		c-0.032-1.716-1.225-2.968-2.844-3.022l0,0l-7.822-0.711l7.822-0.889l0,0c1.576,0.044,2.805-1.144,2.844-2.845l0,0l0.711-7.645
		l0.889,7.645l0,0c-0.022,1.722,1.159,2.884,2.844,2.845l0,0L97.614,64.605L97.614,64.605z"/>
	<path fill="#C6C6C6" d="M95.303,64.605l-6.222,0.711l0,0c-1.358-0.072-2.308,0.927-2.311,2.312l0,0l-0.711,6.044l-0.533-6.044l0,0
		c-0.031-1.385-0.983-2.384-2.312-2.312l0,0l-6.222-0.711l6.222-0.711l0,0c1.293,0.064,2.275-0.885,2.312-2.133l0,0l0.533-6.222
		l0.711,6.222l0,0c0.01,1.267,0.953,2.194,2.311,2.133l0,0L95.303,64.605L95.303,64.605z"/>
	<path fill="#E2E2E2" d="M92.992,64.605l-4.622,0.533l0,0c-1.031-0.022-1.741,0.725-1.778,1.778l0,0l-0.355,4.444l-0.534-4.444l0,0
		c-0.029-1.053-0.741-1.8-1.777-1.778l0,0l-4.622-0.533l4.622-0.533l0,0c1.011,0.084,1.744-0.625,1.777-1.6l0,0l0.534-4.623
		l0.355,4.623l0,0c0.043,0.989,0.747,1.682,1.778,1.6l0,0L92.992,64.605L92.992,64.605z"/>
	<path fill="#FFFFFF" d="M84.637,64.428c0.729-0.074,1.214-0.543,1.245-1.245l0,0l0.355-3.022l0.178,3.022l0,0
		c0.075,0.71,0.542,1.169,1.245,1.245l0,0l3.022,0.178l-3.022,0.355l0,0c-0.703,0.029-1.174,0.523-1.245,1.245l0,0l-0.178,3.022
		l-0.355-3.022l0,0c-0.028-0.722-0.499-1.216-1.067-1.245l0,0l-3.2-0.355L84.637,64.428L84.637,64.428L84.637,64.428z"/>
	<path d="M68.814,265.139c1.375,0.037,2.382-0.936,2.312-2.311l0,0l0.711-6.4l0.711,6.4l0,0c-0.026,1.393,0.942,2.345,2.311,2.311
		l0,0l6.4,0.711l-6.4,0.711l0,0c-1.369-0.066-2.344,0.96-2.311,2.311l0,0l-0.711,6.4l-0.711-6.4l0,0
		c0.077-1.351-0.901-2.377-2.312-2.311l0,0l-6.4-0.711L68.814,265.139L68.814,265.139L68.814,265.139z"/>
	<path fill="#1C1C1C" d="M80.37,265.85l-5.867,0.533l0,0c-1.155,0.065-2.042,0.997-1.956,2.311l0,0l-0.711,5.689l-0.534-5.689l0,0
		c-0.034-1.314-0.923-2.246-2.133-2.311l0,0l-5.866-0.533l5.866-0.534l0,0c1.178-0.067,2.094-0.952,2.133-2.133l0,0l0.534-5.867
		l0.711,5.867l0,0c-0.08,1.198,0.8,2.063,1.956,2.133l0,0L80.37,265.85L80.37,265.85z"/>
	<path fill="#393939" d="M79.481,265.85l-5.155,0.533l0,0c-1.12,0.018-1.918,0.856-1.956,1.956l0,0l-0.533,5.155l-0.534-5.155l0,0
		c0.032-1.099-0.766-1.938-1.956-1.956l0,0l-5.155-0.533l5.155-0.534l0,0c1.16,0.006,1.983-0.79,1.956-1.955l0,0l0.534-5.156
		l0.533,5.156l0,0c0.044,1.18,0.835,1.958,1.956,1.955l0,0L79.481,265.85L79.481,265.85z"/>
	<path fill="#555555" d="M78.592,265.85l-4.622,0.533l0,0c-0.907-0.029-1.616,0.715-1.6,1.778l0,0l-0.533,4.444l-0.355-4.444l0,0
		c-0.08-1.063-0.789-1.807-1.778-1.778l0,0l-4.623-0.533l4.623-0.534l0,0c0.963,0.08,1.694-0.628,1.778-1.6l0,0l0.355-4.623
		l0.533,4.623l0,0c-0.01,0.985,0.693,1.676,1.6,1.6l0,0L78.592,265.85L78.592,265.85z"/>
	<path fill="#717171" d="M77.881,265.85l-4.089,0.533l0,0c-0.871-0.077-1.491,0.575-1.422,1.422l0,0l-0.533,4.089l-0.355-4.089l0,0
		c-0.013-0.848-0.633-1.499-1.422-1.422l0,0l-4.089-0.533l3.911-0.355l0,0c0.943-0.025,1.583-0.644,1.6-1.422l0,0l0.355-4.089
		l0.533,4.089l0,0c-0.064,0.79,0.551,1.394,1.422,1.422l0,0L77.881,265.85L77.881,265.85z"/>
	<path fill="#8E8E8E" d="M76.992,265.85l-3.556,0.355l0,0c-0.658,0.054-1.188,0.612-1.244,1.422l0,0l-0.355,3.378l-0.355-3.378l0,0
		c0.054-0.81-0.478-1.368-1.245-1.422l0,0l-3.378-0.355l3.378-0.355l0,0c0.747,0.048,1.295-0.481,1.245-1.245l0,0l0.355-3.378
		l0.355,3.378l0,0c0.06,0.772,0.586,1.291,1.244,1.245l0,0L76.992,265.85L76.992,265.85z"/>
	<path fill="#AAAAAA" d="M76.104,265.85l-2.845,0.355l0,0c-0.623,0.007-1.063,0.471-1.066,1.066l0,0l-0.355,2.844l-0.178-2.844l0,0
		c-0.058-0.596-0.5-1.06-1.066-1.066l0,0l-2.844-0.355l2.844-0.178l0,0c0.551-0.056,1.006-0.497,1.066-1.066l0,0l0.178-2.844
		l0.355,2.844l0,0c0.006,0.578,0.444,1.008,1.066,1.066l0,0L76.104,265.85L76.104,265.85z"/>
	<path fill="#C6C6C6" d="M75.215,265.85l-2.312,0.355l0,0c-0.41-0.04-0.761,0.33-0.711,0.889l0,0l-0.355,2.133l-0.178-2.133l0,0
		c0.009-0.559-0.343-0.929-0.889-0.889l0,0l-2.311-0.355l2.311-0.178l0,0c0.532,0.017,0.896-0.334,0.889-0.889l0,0l0.178-2.311
		l0.355,2.311l0,0c-0.048,0.561,0.301,0.904,0.711,0.889l0,0L75.215,265.85L75.215,265.85z"/>
	<path fill="#E2E2E2" d="M74.503,266.027l-1.778,0.178l0,0c-0.374-0.087-0.637,0.189-0.711,0.533l0,0l-0.178,1.778l-0.178-1.778l0,0
		c0.076-0.344-0.188-0.621-0.533-0.533l0,0l-1.778-0.178l1.778-0.177l0,0c0.335-0.088,0.607-0.351,0.533-0.711l0,0l0.178-1.777
		l0.178,1.777l0,0c0.076,0.365,0.337,0.622,0.711,0.711l0,0L74.503,266.027L74.503,266.027z"/>
	<path fill="#FFFFFF" d="M71.303,265.85c0.316-0.015,0.497-0.188,0.534-0.355l0,0v-1.245l0.178,1.245l0,0
		c0.022,0.17,0.195,0.34,0.355,0.355l0,0l1.244,0.177H72.37l0,0c-0.161,0.044-0.335,0.227-0.355,0.534l0,0l-0.178,1.066v-1.066l0,0
		c-0.036-0.307-0.21-0.49-0.534-0.534l0,0h-1.066L71.303,265.85L71.303,265.85L71.303,265.85z"/>
	<path d="M47.481,181.939c4.847,0.064,8.438-3.407,8.355-8.178l0,0l2.489-22.756l2.311,22.756l0,0
		c0.006,4.835,3.457,8.228,8.355,8.178l0,0l22.578,2.489l-22.578,2.311l0,0c-4.898-0.033-8.376,3.623-8.355,8.534l0,0l-2.311,22.4
		l-2.312-22.4l0,0c-0.074-4.911-3.558-8.567-8.355-8.534l0,0l-22.756-2.311L47.481,181.939L47.481,181.939L47.481,181.939z"/>
	<path fill="#1C1C1C" d="M88.548,184.428l-20.623,2.133l0,0c-4.339-0.023-7.499,3.299-7.466,7.645l0,0l-2.133,20.444l-2.133-20.444
		l0,0c-0.016-4.345-3.182-7.667-7.645-7.645l0,0l-20.623-2.133l20.623-2.134l0,0c4.347-0.03,7.61-3.184,7.645-7.644l0,0
		l2.133-20.622l2.133,20.8l0,0c-0.008,4.341,3.127,7.424,7.466,7.466l0,0L88.548,184.428L88.548,184.428z"/>
	<path fill="#393939" d="M85.526,184.428l-18.489,1.956l0,0c-3.958-0.013-6.8,2.976-6.755,6.934l0,0l-1.956,18.311l-1.956-18.311
		l0,0c0.043-3.958-2.805-6.947-6.755-6.934l0,0l-18.489-1.956l18.311-1.956l0,0c4.024,0.054,6.961-2.784,6.934-6.756l0,0
		l1.956-18.489l1.956,18.489l0,0c-0.022,4.025,2.798,6.798,6.755,6.756l0,0L85.526,184.428L85.526,184.428z"/>
	<path fill="#555555" d="M82.503,184.428l-16.355,1.778l0,0c-3.577-0.003-6.101,2.651-6.045,6.222l0,0l-1.777,16.355l-1.6-16.355
		l0,0c-0.075-3.571-2.604-6.226-6.044-6.222l0,0l-16.533-1.778l16.355-1.6l0,0c3.524-0.041,6.133-2.562,6.044-6.044l0,0
		l1.778-16.533l1.777,16.533l0,0c-0.037,3.53,2.469,5.994,6.045,6.044l0,0L82.503,184.428L82.503,184.428z"/>
	<path fill="#717171" d="M79.481,184.605l-14.4,1.422l0,0c-3.017,0.007-5.225,2.328-5.155,5.333l0,0l-1.6,14.4l-1.422-14.4l0,0
		c-0.016-3.006-2.227-5.327-5.333-5.333l0,0l-14.4-1.422l14.4-1.6l0,0c3.024,0.042,5.305-2.161,5.333-5.156l0,0l1.422-14.577
		l1.6,14.577l0,0c-0.051,3.036,2.139,5.189,5.155,5.156l0,0L79.481,184.605L79.481,184.605z"/>
	<path fill="#8E8E8E" d="M76.459,184.605l-12.267,1.245l0,0c-2.635,0.016-4.525,2.003-4.445,4.622l0,0l-1.422,12.267l-1.245-12.267
		l0,0c0.043-2.619-1.85-4.606-4.444-4.622l0,0l-12.444-1.245l12.267-1.244l0,0c2.702-0.052,4.655-1.939,4.622-4.623l0,0
		l1.245-12.267l1.422,12.267l0,0c-0.066,2.718,1.81,4.563,4.445,4.623l0,0L76.459,184.605L76.459,184.605z"/>
	<path fill="#AAAAAA" d="M73.437,184.605l-10.133,1.066l0,0c-2.253,0.026-3.826,1.68-3.912,3.912l0,0l-0.889,10.133l-1.066-10.133
		l0,0c-0.075-2.232-1.651-3.885-3.912-3.912l0,0l-10.133-1.066l10.133-1.067l0,0c2.203,0.032,3.828-1.538,3.912-3.733l0,0
		l1.066-10.312l1.067,10.312l0,0c-0.081,2.224,1.48,3.758,3.733,3.733l0,0L73.437,184.605L73.437,184.605z"/>
	<path fill="#C6C6C6" d="M70.415,184.605l-8.178,0.889l0,0c-1.693,0.035-2.949,1.355-3.022,3.022l0,0l-0.711,8.178l-0.889-8.178l0,0
		c-0.016-1.667-1.273-2.987-3.022-3.022l0,0l-8.178-0.889l8.178-0.711l0,0c1.702-0.063,3-1.316,3.022-3.022l0,0l0.889-8.178
		l0.711,8.178l0,0c0.083,1.729,1.329,2.955,3.022,3.022l0,0L70.415,184.605L70.415,184.605z"/>
	<path fill="#E2E2E2" d="M67.393,184.783l-6.045,0.533l0,0c-1.312,0.045-2.25,1.032-2.311,2.312l0,0l-0.533,6.044l-0.711-6.044l0,0
		c0.043-1.279-0.896-2.266-2.134-2.312l0,0l-6.222-0.533l6.045-0.711l0,0c1.379,0.021,2.349-0.916,2.311-2.311l0,0l0.711-6.045
		l0.533,6.223l0,0c0.068,1.235,1,2.15,2.311,2.133l0,0L67.393,184.783L67.393,184.783z"/>
	<path fill="#FFFFFF" d="M56.548,184.428c0.88-0.074,1.521-0.693,1.6-1.6l0,0l0.355-4.089l0.355,4.089l0,0
		c0.054,0.918,0.67,1.524,1.6,1.6l0,0l3.911,0.355l-3.911,0.355l0,0c-0.93,0.055-1.551,0.708-1.6,1.6l0,0l-0.355,3.911l-0.355-3.911
		l0,0c-0.075-0.892-0.697-1.545-1.6-1.6l0,0l-4.089-0.355L56.548,184.428L56.548,184.428L56.548,184.428z"/>
	<path d="M210.147,246.472c2.167,0.053,3.779-1.504,3.733-3.733l0,0l1.067-10.133l1.066,10.133l0,0
		c0.033,2.258,1.582,3.781,3.733,3.733l0,0l10.134,1.066l-10.134,1.067l0,0c-2.151,0.032-3.712,1.673-3.733,3.911l0,0l-1.066,9.956
		l-1.067-9.956l0,0c0.055-2.238-1.509-3.88-3.733-3.911l0,0l-10.133-1.067L210.147,246.472L210.147,246.472L210.147,246.472z"/>
	<path fill="#1C1C1C" d="M228.637,247.539l-9.245,1.067l0,0c-2.023-0.043-3.442,1.447-3.378,3.378l0,0l-1.066,9.244l-0.889-9.244
		l0,0c-0.017-1.931-1.438-3.422-3.378-3.378l0,0l-9.245-1.067l9.067-0.889l0,0c2.065-0.007,3.53-1.423,3.556-3.377l0,0l0.889-9.245
		l1.066,9.245l0,0c-0.053,1.98,1.354,3.365,3.378,3.377l0,0L228.637,247.539L228.637,247.539z"/>
	<path fill="#393939" d="M227.214,247.539l-8.355,0.889l0,0c-1.719,0.059-2.994,1.4-3.022,3.2l0,0l-0.889,8.178l-0.711-8.178l0,0
		c-0.088-1.8-1.367-3.141-3.2-3.2l0,0l-8.355-0.889l8.355-0.711l0,0c1.787-0.067,3.104-1.341,3.022-3.2l0,0l0.889-8.178l0.889,8.355
		l0,0c0.038,1.705,1.303,2.95,3.022,3.022l0,0L227.214,247.539L227.214,247.539z"/>
	<path fill="#555555" d="M225.97,247.717l-7.467,0.711l0,0c-1.59-0.017-2.724,1.175-2.667,2.667l0,0l-0.889,7.466l-0.711-7.466l0,0
		c0.018-1.492-1.118-2.684-2.667-2.667l0,0l-7.466-0.711l7.466-0.889l0,0c1.507,0.05,2.679-1.082,2.667-2.667l0,0l0.711-7.467
		l0.889,7.467l0,0c-0.048,1.606,1.076,2.712,2.667,2.667l0,0L225.97,247.717L225.97,247.717z"/>
	<path fill="#717171" d="M224.548,247.717l-6.4,0.533l0,0c-1.462,0.085-2.454,1.127-2.489,2.489l0,0l-0.711,6.4l-0.533-6.4l0,0
		c-0.054-1.361-1.046-2.404-2.489-2.489l0,0l-6.399-0.533l6.399-0.711l0,0c1.407-0.011,2.431-1,2.489-2.311l0,0l0.533-6.578
		l0.711,6.578l0,0c0.043,1.33,1.027,2.296,2.489,2.311l0,0L224.548,247.717L224.548,247.717z"/>
	<path fill="#8E8E8E" d="M223.125,247.717l-5.511,0.533l0,0c-1.157,0.01-2.005,0.902-1.956,2.133l0,0l-0.533,5.511l-0.711-5.511l0,0
		c0.053-1.231-0.797-2.124-1.956-2.133l0,0l-5.511-0.533l5.511-0.534l0,0c1.127-0.071,2.004-0.918,1.956-2.133l0,0l0.711-5.511
		l0.533,5.511l0,0c-0.042,1.23,0.799,2.059,1.956,2.133l0,0L223.125,247.717L223.125,247.717z"/>
	<path fill="#AAAAAA" d="M221.881,247.717l-4.623,0.533l0,0c-1.029-0.066-1.734,0.677-1.778,1.6l0,0l-0.355,4.622l-0.533-4.622l0,0
		c-0.018-0.923-0.725-1.666-1.778-1.6l0,0l-4.622-0.533l4.622-0.534l0,0c1.026,0.046,1.756-0.658,1.778-1.6l0,0l0.533-4.623
		l0.355,4.623l0,0c0.048,0.954,0.749,1.643,1.778,1.6l0,0L221.881,247.717L221.881,247.717z"/>
	<path fill="#C6C6C6" d="M220.459,247.717l-3.733,0.355l0,0c-0.723,0.037-1.287,0.63-1.245,1.422l0,0l-0.355,3.556l-0.533-3.556l0,0
		c0.088-0.792-0.477-1.386-1.244-1.422l0,0l-3.733-0.355l3.733-0.355l0,0c0.747-0.015,1.33-0.577,1.244-1.422l0,0l0.533-3.556
		l0.355,3.556l0,0c-0.038,0.855,0.522,1.405,1.245,1.422l0,0L220.459,247.717L220.459,247.717z"/>
	<path fill="#E2E2E2" d="M219.037,247.717l-2.667,0.355l0,0c-0.595-0.039-1.016,0.404-1.066,1.066l0,0l-0.178,2.667l-0.355-2.667
		l0,0c0.017-0.662-0.405-1.105-1.066-1.066l0,0l-2.667-0.355l2.667-0.178l0,0c0.646-0.074,1.082-0.496,1.066-1.066l0,0l0.355-2.844
		l0.178,2.844l0,0c0.054,0.58,0.471,0.99,1.066,1.066l0,0L219.037,247.717L219.037,247.717z"/>
	<path fill="#FFFFFF" d="M214.237,247.539c0.367,0.042,0.655-0.236,0.711-0.711l0,0l0.178-1.778l0.178,1.956l0,0
		c-0.033,0.303,0.244,0.574,0.711,0.533l0,0l1.778,0.178l-1.778,0.177l0,0c-0.467,0.064-0.746,0.357-0.711,0.711l0,0l-0.178,1.778
		l-0.178-1.778l0,0c-0.054-0.354-0.334-0.647-0.711-0.711l0,0l-1.778-0.177L214.237,247.539L214.237,247.539L214.237,247.539z"/>
	<path d="M344.903,261.939c1.893,0.035,3.266-1.292,3.2-3.2l0,0l0.889-8.533l1.066,8.533l0,0c-0.084,1.933,1.233,3.23,3.022,3.2l0,0
		l8.711,0.889l-8.711,0.889l0,0c-1.789,0.055-3.117,1.453-3.199,3.378l0,0l-0.89,8.533l-0.889-8.533l0,0
		c0.072-1.925-1.26-3.323-3.2-3.378l0,0l-8.533-0.889L344.903,261.939L344.903,261.939L344.903,261.939z"/>
	<path fill="#1C1C1C" d="M360.726,262.828l-7.999,0.889l0,0c-1.628-0.009-2.835,1.26-2.845,3.022l0,0l-0.89,7.822l-0.71-7.822l0,0
		c-0.015-1.762-1.226-3.032-2.845-3.022l0,0l-8.001-0.889l7.823-0.711l0,0c1.753-0.043,3-1.249,3.022-2.844l0,0l0.71-8l0.89,8l0,0
		c0.019,1.618,1.217,2.797,2.845,2.844l0,0L360.726,262.828L360.726,262.828z"/>
	<path fill="#393939" d="M359.481,262.828l-7.111,0.889l0,0c-1.464-0.074-2.551,1.069-2.488,2.667l0,0l-0.712,6.934l-0.888-6.934
		l0,0c0.074-1.598-1.014-2.74-2.49-2.667l0,0l-7.111-0.889l7.111-0.711l0,0c1.437,0.057,2.56-1.028,2.49-2.489l0,0l0.888-7.111
		l0.712,7.111l0,0c-0.055,1.481,1.024,2.541,2.488,2.489l0,0L359.481,262.828L359.481,262.828z"/>
	<path fill="#555555" d="M358.415,263.006l-6.4,0.533l0,0c-1.304,0.041-2.269,1.055-2.311,2.489l0,0l-0.534,6.223l-0.712-6.223l0,0
		c-0.01-1.434-0.977-2.448-2.311-2.489l0,0l-6.223-0.533l6.223-0.712l0,0c1.298-0.021,2.295-0.984,2.311-2.311l0,0l0.712-6.4
		l0.534,6.4l0,0c0.049,1.344,1.007,2.286,2.311,2.311l0,0L358.415,263.006L358.415,263.006z"/>
	<path fill="#717171" d="M357.171,263.006l-5.513,0.533l0,0c-1.142-0.023-1.984,0.863-1.954,1.956l0,0l-0.534,5.511l-0.712-5.511
		l0,0c0.081-1.093-0.766-1.98-1.954-1.956l0,0l-5.511-0.533l5.511-0.712l0,0c1.158,0.079,2.029-0.763,1.954-1.955l0,0l0.712-5.511
		l0.534,5.511l0,0c-0.023,1.208,0.813,2.031,1.954,1.955l0,0L357.171,263.006L357.171,263.006z"/>
	<path fill="#8E8E8E" d="M356.103,263.006l-4.799,0.533l0,0c-0.98-0.088-1.702,0.671-1.777,1.6l0,0l-0.356,4.8l-0.534-4.8l0,0
		c-0.007-0.929-0.73-1.688-1.776-1.6l0,0l-4.622-0.533l4.622-0.534l0,0c1.021,0,1.766-0.72,1.776-1.778l0,0l0.534-4.622l0.356,4.622
		l0,0c0.08,1.071,0.797,1.775,1.777,1.778l0,0L356.103,263.006L356.103,263.006z"/>
	<path fill="#AAAAAA" d="M354.858,263.006l-3.91,0.355l0,0c-0.817,0.025-1.42,0.657-1.422,1.422l0,0l-0.356,3.911l-0.534-3.911l0,0
		c0.084-0.765-0.519-1.397-1.422-1.422l0,0l-3.91-0.355l3.91-0.356l0,0c0.881-0.077,1.502-0.677,1.422-1.6l0,0l0.534-3.911
		l0.356,4.089l0,0c0.007,0.756,0.604,1.343,1.422,1.422l0,0L354.858,263.006L354.858,263.006z"/>
	<path fill="#C6C6C6" d="M353.792,263.006l-3.2,0.355l0,0c-0.656-0.04-1.136,0.466-1.065,1.066l0,0l-0.356,3.2l-0.355-3.2l0,0
		c-0.003-0.601-0.485-1.106-1.066-1.066l0,0l-3.2-0.355l3.022-0.356l0,0c0.742,0.023,1.238-0.456,1.244-1.067l0,0l0.355-3.2
		l0.356,3.2l0,0c-0.067,0.62,0.409,1.088,1.065,1.067l0,0L353.792,263.006L353.792,263.006z"/>
	<path fill="#E2E2E2" d="M352.548,263.006l-2.312,0.177l0,0c-0.495,0.075-0.854,0.452-0.889,0.889l0,0l-0.178,2.311l-0.355-2.311
		l0,0c0.087-0.437-0.272-0.814-0.711-0.889l0,0l-2.489-0.177l2.489-0.178l0,0c0.426-0.055,0.796-0.414,0.711-0.889l0,0l0.355-2.311
		l0.178,2.311l0,0c0.039,0.482,0.394,0.833,0.889,0.889l0,0L352.548,263.006L352.548,263.006z"/>
	<path fill="#FFFFFF" d="M348.458,262.828c0.287,0.044,0.532-0.192,0.534-0.534l0,0l0.178-1.6l0.178,1.6l0,0
		c-0.034,0.346,0.201,0.578,0.534,0.534l0,0l1.599,0.178l-1.599,0.177l0,0c-0.333,0.011-0.571,0.26-0.534,0.534l0,0l-0.178,1.6
		l-0.178-1.6l0,0c0-0.273-0.239-0.523-0.534-0.534l0,0l-1.599-0.177L348.458,262.828L348.458,262.828L348.458,262.828z"/>
	<path d="M195.037,137.316c5.22,0.021,9.136-3.763,9.067-9.066l0,0l2.667-24.711l2.489,24.889l0,0
		c0.064,5.196,3.824,8.895,9.067,8.889l0,0l24.711,2.489l-24.711,2.667l0,0c-5.243-0.007-9.033,3.978-9.067,9.245l0,0l-2.489,24.533
		l-2.489-24.533l0,0c-0.087-5.267-3.885-9.252-9.245-9.245l0,0l-24.711-2.667L195.037,137.316L195.037,137.316L195.037,137.316z"/>
	<path fill="#1C1C1C" d="M239.837,139.983l-22.578,2.311l0,0c-4.728-0.012-8.172,3.609-8.178,8.356l0,0l-2.311,22.4l-2.311-22.4l0,0
		c-0.006-4.747-3.457-8.369-8.178-8.356l0,0l-22.578-2.311l22.4-2.311l0,0c4.771-0.05,8.33-3.488,8.355-8.355l0,0l2.311-22.4
		l2.311,22.578l0,0c0.032,4.753,3.45,8.114,8.178,8.178l0,0L239.837,139.983L239.837,139.983z"/>
	<path fill="#393939" d="M236.459,139.983l-20.089,2.133l0,0c-4.392-0.018-7.491,3.239-7.466,7.644l0,0l-2.133,19.912l-2.133-19.912
		l0,0c0.075-4.405-3.03-7.663-7.289-7.644l0,0l-20.267-2.133l20.089-2.134l0,0c4.323,0.057,7.523-3.036,7.467-7.289l0,0
		l2.133-20.267l2.133,20.267l0,0c0,4.311,3.075,7.333,7.466,7.289l0,0L236.459,139.983L236.459,139.983z"/>
	<path fill="#555555" d="M233.259,139.983l-17.956,1.956l0,0c-3.878-0.024-6.631,2.871-6.578,6.755l0,0l-1.956,17.778l-1.778-17.778
		l0,0c-0.022-3.885-2.781-6.779-6.578-6.755l0,0l-17.956-1.956l17.777-1.778l0,0c3.875-0.014,6.717-2.761,6.756-6.578l0,0
		l1.778-17.955l1.956,17.955l0,0c-0.032,3.868,2.699,6.554,6.578,6.578l0,0L233.259,139.983L233.259,139.983z"/>
	<path fill="#717171" d="M229.881,140.161l-15.645,1.6l0,0c-3.365-0.029-5.772,2.501-5.689,5.867l0,0l-1.778,15.645l-1.6-15.645l0,0
		c0.059-3.365-2.354-5.896-5.689-5.867l0,0l-15.645-1.6l15.467-1.6l0,0c3.425-0.084,5.91-2.486,5.866-5.867l0,0l1.6-15.645
		l1.778,15.645l0,0c-0.064,3.424,2.324,5.772,5.689,5.689l0,0L229.881,140.161L229.881,140.161z"/>
	<path fill="#8E8E8E" d="M226.681,140.161l-13.511,1.422l0,0c-2.851-0.034-4.912,2.132-4.978,4.978l0,0l-1.245,13.333l-1.422-13.333
		l0,0c-0.04-2.846-2.104-5.013-4.978-4.978l0,0l-13.511-1.422l13.511-1.422l0,0c2.799,0.022,4.927-2.035,4.978-4.978l0,0
		l1.422-13.333l1.245,13.511l0,0c0.082,2.804,2.126,4.814,4.978,4.8l0,0L226.681,140.161L226.681,140.161z"/>
	<path fill="#AAAAAA" d="M223.303,140.161l-11.2,1.244l0,0c-2.337-0.04-4.052,1.763-4.089,4.089l0,0l-1.067,11.2l-1.245-11.2l0,0
		c0.042-2.326-1.676-4.129-4.089-4.089l0,0l-11.2-1.244l11.2-1.067l0,0c2.35-0.048,4.121-1.76,4.089-4.089l0,0l1.245-11.2
		l1.067,11.2l0,0c0.05,2.361,1.752,4.034,4.089,4.089l0,0L223.303,140.161L223.303,140.161z"/>
	<path fill="#C6C6C6" d="M220.103,140.339l-9.066,0.889l0,0c-1.824-0.045-3.192,1.394-3.2,3.378l0,0l-0.889,8.711l-0.889-8.711l0,0
		c-0.055-1.984-1.426-3.424-3.377-3.378l0,0l-8.889-0.889l8.889-1.066l0,0c1.901,0.058,3.314-1.308,3.377-3.2l0,0l0.889-8.889
		l0.889,8.889l0,0c0.019,1.918,1.376,3.253,3.2,3.2l0,0L220.103,140.339L220.103,140.339z"/>
	<path fill="#E2E2E2" d="M216.726,140.339l-6.578,0.711l0,0c-1.487-0.051-2.51,1.024-2.489,2.489l0,0l-0.711,6.578l-0.711-6.578l0,0
		c0.025-1.464-1-2.54-2.489-2.489l0,0l-6.578-0.711l6.578-0.711l0,0c1.452-0.012,2.508-1.033,2.489-2.489l0,0l0.711-6.578
		l0.711,6.578l0,0c-0.013,1.475,1.002,2.473,2.489,2.489l0,0L216.726,140.339L216.726,140.339z"/>
	<path fill="#FFFFFF" d="M204.814,139.983c1.002-0.083,1.702-0.758,1.778-1.778l0,0l0.355-4.267l0.534,4.267l0,0
		c-0.045,1.032,0.626,1.692,1.6,1.778l0,0l4.444,0.355l-4.444,0.533l0,0c-0.973-0.056-1.65,0.656-1.6,1.6l0,0l-0.534,4.444
		l-0.355-4.444l0,0c-0.072-0.944-0.75-1.656-1.778-1.6l0,0l-4.267-0.533L204.814,139.983L204.814,139.983L204.814,139.983z"/>
	<path d="M152.726,312.783c0.822,0.021,1.494-0.629,1.422-1.6l0,0l0.533-4.267l0.355,4.267l0,0c0.066,0.982,0.712,1.616,1.6,1.6l0,0
		l4.267,0.533l-4.267,0.355l0,0c-0.888,0.01-1.539,0.694-1.6,1.601l0,0l-0.355,4.266l-0.533-4.266l0,0
		c0.075-0.906-0.576-1.591-1.422-1.601l0,0l-4.267-0.355L152.726,312.783L152.726,312.783L152.726,312.783z"/>
	<path fill="#1C1C1C" d="M160.37,313.316l-3.911,0.355l0,0c-0.805-0.021-1.396,0.602-1.422,1.422l0,0l-0.355,3.911l-0.355-3.911l0,0
		c-0.058-0.82-0.65-1.442-1.422-1.422l0,0l-3.911-0.355l3.911-0.533l0,0c0.75,0.069,1.361-0.521,1.422-1.422l0,0l0.355-3.734
		l0.355,3.734l0,0c0.03,0.911,0.617,1.489,1.422,1.422l0,0L160.37,313.316L160.37,313.316z"/>
	<path fill="#393939" d="M159.836,313.316l-3.555,0.355l0,0c-0.722-0.052-1.254,0.507-1.245,1.244l0,0l-0.355,3.378l-0.355-3.378
		l0,0c-0.014-0.737-0.546-1.296-1.245-1.244l0,0l-3.556-0.355l3.556-0.354l0,0c0.679-0.062,1.229-0.592,1.245-1.245l0,0l0.355-3.556
		l0.355,3.556l0,0c-0.005,0.663,0.522,1.183,1.245,1.245l0,0L159.836,313.316L159.836,313.316z"/>
	<path fill="#555555" d="M159.125,313.316l-3.022,0.355l0,0c-0.639-0.084-1.112,0.412-1.067,1.067l0,0l-0.355,3.021l-0.355-3.021
		l0,0c0.031-0.655-0.442-1.151-1.067-1.067l0,0l-3.2-0.355l3.2-0.354l0,0c0.607-0.012,1.095-0.483,1.067-1.067l0,0l0.355-3.2
		l0.355,3.2l0,0c-0.042,0.593,0.428,1.054,1.067,1.067l0,0L159.125,313.316L159.125,313.316z"/>
	<path fill="#717171" d="M158.592,313.316l-2.667,0.178l0,0c-0.556,0.063-0.97,0.497-0.889,1.066l0,0l-0.355,2.667l-0.355-2.667l0,0
		c0.076-0.569-0.338-1.003-0.889-1.066l0,0l-2.667-0.178l2.667-0.354l0,0c0.536,0.037,0.962-0.375,0.889-0.891l0,0l0.355-2.844
		l0.355,2.844l0,0c-0.077,0.522,0.333,0.925,0.889,0.891l0,0L158.592,313.316L158.592,313.316z"/>
	<path fill="#8E8E8E" d="M158.059,313.316l-2.312,0.178l0,0c-0.473,0.031-0.826,0.403-0.889,0.89l0,0l-0.178,2.311l-0.178-2.311l0,0
		c-0.057-0.486-0.412-0.858-0.889-0.89l0,0l-2.311-0.178l2.311-0.354l0,0c0.464,0.086,0.829-0.268,0.889-0.712l0,0l0.178-2.311
		l0.178,2.311l0,0c0.064,0.451,0.416,0.796,0.889,0.712l0,0L158.059,313.316L158.059,313.316z"/>
	<path fill="#AAAAAA" d="M157.525,313.316l-1.955,0.178l0,0c-0.391,0-0.685,0.31-0.711,0.712l0,0l-0.178,1.955l-0.178-1.955l0,0
		c-0.014-0.402-0.308-0.712-0.711-0.712l0,0l-1.955-0.178l1.955-0.178l0,0c0.392-0.042,0.696-0.336,0.711-0.711l0,0l0.178-1.956
		l0.178,1.956l0,0c0.029,0.381,0.321,0.667,0.711,0.711l0,0L157.525,313.316L157.525,313.316z"/>
	<path fill="#C6C6C6" d="M156.992,313.316l-1.6,0.178l0,0c-0.307-0.032-0.542,0.216-0.533,0.533l0,0l-0.178,1.601l-0.178-1.601l0,0
		c0.031-0.317-0.204-0.565-0.533-0.533l0,0l-1.6-0.178l1.6-0.178l0,0c0.32,0.007,0.562-0.228,0.533-0.533l0,0l0.178-1.6l0.178,1.6
		l0,0c-0.007,0.31,0.226,0.538,0.533,0.533l0,0L156.992,313.316L156.992,313.316z"/>
	<path fill="#E2E2E2" d="M156.459,313.316l-1.244,0.178l0,0c-0.225-0.063-0.4,0.121-0.356,0.355l0,0l-0.178,1.066l-0.178-1.066l0,0
		c0.075-0.234-0.1-0.418-0.355-0.355l0,0l-1.067-0.178l1.067-0.178l0,0c0.248,0.056,0.429-0.119,0.355-0.355l0,0l0.178-1.066
		l0.178,1.066l0,0c-0.043,0.239,0.131,0.41,0.356,0.355l0,0L156.459,313.316L156.459,313.316z"/>
	<path fill="#FFFFFF" d="M154.326,313.316c0.176-0.074,0.296-0.19,0.355-0.354l0,0v-0.712l0.178,0.712l0,0
		c-0.08,0.167,0.037,0.28,0.178,0.354l0,0h0.711h-0.711l0,0c-0.141,0.083-0.258,0.205-0.178,0.355l0,0l-0.178,0.712v-0.712l0,0
		C154.623,313.521,154.506,313.399,154.326,313.316L154.326,313.316h-0.711H154.326L154.326,313.316L154.326,313.316z"/>
	<path d="M311.126,58.028c0.94-0.039,1.611-0.688,1.601-1.6l0,0l0.532-4.267l0.355,4.267l0,0c0.008,0.924,0.652,1.558,1.601,1.6l0,0
		l4.267,0.355l-4.267,0.534l0,0c-0.948-0.049-1.598,0.635-1.601,1.6l0,0l-0.355,4.089l-0.532-4.089l0,0
		c0.016-0.965-0.636-1.649-1.601-1.6l0,0l-4.267-0.534L311.126,58.028L311.126,58.028L311.126,58.028z"/>
	<path fill="#1C1C1C" d="M318.771,58.383l-3.734,0.534l0,0c-0.863-0.081-1.455,0.541-1.422,1.422l0,0l-0.355,3.733l-0.532-3.733l0,0
		c0.061-0.881-0.531-1.502-1.423-1.422l0,0l-3.733-0.534l3.733-0.355l0,0c0.868,0.01,1.48-0.581,1.423-1.422l0,0l0.532-3.911
		l0.355,3.911l0,0c-0.028,0.853,0.559,1.43,1.422,1.422l0,0L318.771,58.383L318.771,58.383z"/>
	<path fill="#393939" d="M318.237,58.383l-3.379,0.355l0,0c-0.781,0.066-1.313,0.625-1.244,1.422l0,0l-0.355,3.377l-0.356-3.377l0,0
		c-0.072-0.797-0.604-1.356-1.422-1.422l0,0l-3.377-0.355l3.377-0.355l0,0c0.799,0.059,1.347-0.473,1.422-1.245l0,0l0.356-3.378
		l0.355,3.378l0,0c-0.064,0.782,0.463,1.301,1.244,1.245l0,0L318.237,58.383L318.237,58.383z"/>
	<path fill="#555555" d="M317.703,58.383l-3.022,0.355l0,0c-0.699,0.035-1.17,0.531-1.244,1.245l0,0l-0.178,3.022l-0.356-3.022l0,0
		c-0.027-0.713-0.5-1.21-1.244-1.245l0,0l-3.022-0.355l3.022-0.178l0,0c0.727-0.07,1.214-0.542,1.244-1.245l0,0l0.356-3.022
		l0.178,3.022l0,0c0.076,0.711,0.545,1.172,1.244,1.245l0,0L317.703,58.383L317.703,58.383z"/>
	<path fill="#717171" d="M317.171,58.383l-2.668,0.355l0,0c-0.615,0.003-1.029,0.438-1.066,1.067l0,0l-0.178,2.667l-0.356-2.667l0,0
		c0.018-0.629-0.396-1.063-0.888-1.067l0,0l-2.845-0.355l2.667-0.178l0,0c0.653-0.021,1.08-0.434,1.065-1.067l0,0l0.356-2.667
		l0.178,2.667l0,0c0.042,0.641,0.451,1.043,1.066,1.067l0,0L317.171,58.383L317.171,58.383z"/>
	<path fill="#8E8E8E" d="M316.637,58.383l-2.311,0.355l0,0c-0.534-0.028-0.887,0.344-0.89,0.889l0,0l-0.178,2.311l-0.356-2.311l0,0
		c0.062-0.545-0.293-0.917-0.71-0.889l0,0l-2.311-0.355l2.311-0.178l0,0c0.405,0.027,0.77-0.326,0.71-0.889l0,0l0.356-2.311
		l0.178,2.311l0,0c0.006,0.57,0.355,0.915,0.89,0.889l0,0L316.637,58.383L316.637,58.383z"/>
	<path fill="#AAAAAA" d="M316.103,58.561l-1.954,0.178l0,0c-0.45-0.059-0.744,0.25-0.712,0.711l0,0l-0.178,1.778l-0.178-1.778l0,0
		c-0.072-0.461-0.368-0.77-0.711-0.711l0,0l-1.956-0.178l1.956-0.355l0,0c0.333,0.076,0.637-0.218,0.711-0.711l0,0l0.178-1.778
		l0.178,1.956l0,0c-0.03,0.321,0.262,0.608,0.712,0.533l0,0L316.103,58.561L316.103,58.561z"/>
	<path fill="#C6C6C6" d="M315.393,58.561h-1.422l0,0c-0.368,0.086-0.603,0.334-0.534,0.711l0,0l-0.178,1.422l-0.178-1.422l0,0
		c-0.029-0.377-0.264-0.625-0.533-0.711l0,0h-1.6l1.6-0.178l0,0c0.261-0.052,0.502-0.288,0.533-0.534l0,0l0.178-1.6l0.178,1.6l0,0
		c-0.066,0.251,0.166,0.479,0.534,0.534l0,0L315.393,58.561L315.393,58.561z"/>
	<path fill="#E2E2E2" d="M314.858,58.561h-1.066l0,0c-0.283,0.056-0.46,0.24-0.533,0.533l0,0v1.067l-0.178-1.067l0,0
		c0.016-0.293-0.159-0.478-0.354-0.533l0,0h-1.246l1.246-0.178l0,0c0.188-0.003,0.37-0.179,0.354-0.355l0,0l0.178-1.245v1.245l0,0
		c0.075,0.179,0.25,0.351,0.533,0.355l0,0L314.858,58.561L314.858,58.561z"/>
	<path fill="#FFFFFF" d="M312.902,58.383c0.117,0.044,0.237-0.071,0.179-0.178l0,0l0.178-0.889v0.889l0,0
		c0.039,0.109,0.154,0.222,0.355,0.178l0,0l0.712,0.178h-0.712l0,0c-0.201,0.024-0.316,0.146-0.355,0.356l0,0v0.711l-0.178-0.711
		l0,0c0.061-0.21-0.057-0.332-0.179-0.356l0,0h-0.71L312.902,58.383L312.902,58.383L312.902,58.383z"/>
	<path d="M48.903,105.316c0.941,0.08,1.613-0.569,1.6-1.422l0,0l0.533-4.267l0.355,4.267l0,0c0.007,0.864,0.653,1.498,1.6,1.422l0,0
		l4.267,0.534l-4.267,0.355l0,0c-0.947,0.069-1.598,0.753-1.6,1.6l0,0l-0.355,4.267l-0.533-4.267l0,0
		c0.016-0.847-0.635-1.531-1.6-1.6l0,0l-4.267-0.355L48.903,105.316L48.903,105.316L48.903,105.316z"/>
	<path fill="#1C1C1C" d="M56.548,105.85l-3.733,0.355l0,0c-0.864,0.038-1.456,0.66-1.422,1.422l0,0l-0.355,3.911l-0.533-3.911l0,0
		c0.061-0.762-0.531-1.384-1.422-1.422l0,0l-3.733-0.355l3.733-0.355l0,0c0.869-0.05,1.48-0.64,1.422-1.422l0,0l0.533-3.911
		l0.355,3.911l0,0c-0.029,0.793,0.558,1.37,1.422,1.422l0,0L56.548,105.85L56.548,105.85z"/>
	<path fill="#393939" d="M56.014,105.85l-3.377,0.355l0,0c-0.781,0.007-1.313,0.566-1.245,1.245l0,0l-0.355,3.555l-0.355-3.555l0,0
		c-0.073-0.679-0.605-1.238-1.422-1.245l0,0l-3.377-0.355l3.377-0.355l0,0c0.798-0.001,1.347-0.532,1.422-1.245l0,0l0.355-3.556
		l0.355,3.556l0,0c-0.064,0.723,0.463,1.242,1.245,1.245l0,0L56.014,105.85L56.014,105.85z"/>
	<path fill="#555555" d="M55.481,105.85l-3.022,0.355l0,0c-0.698-0.025-1.171,0.472-1.245,1.066l0,0l-0.178,3.2l-0.355-3.2l0,0
		c-0.028-0.594-0.501-1.091-1.245-1.066l0,0l-3.022-0.355l3.022-0.355l0,0c0.726,0.048,1.213-0.424,1.245-1.067l0,0l0.355-3.022
		l0.178,3.022l0,0c0.077,0.652,0.546,1.113,1.245,1.067l0,0L55.481,105.85L55.481,105.85z"/>
	<path fill="#717171" d="M54.948,105.85l-2.667,0.355l0,0c-0.616-0.056-1.029,0.378-1.067,0.889l0,0l-0.178,2.666l-0.355-2.666l0,0
		c0.016-0.511-0.398-0.945-0.889-0.889l0,0l-2.844-0.355l2.667-0.178l0,0c0.654-0.081,1.08-0.493,1.066-1.066l0,0l0.355-2.667
		l0.178,2.667l0,0c0.042,0.582,0.451,0.984,1.067,1.066l0,0L54.948,105.85L54.948,105.85z"/>
	<path fill="#8E8E8E" d="M54.415,105.85l-2.311,0.355l0,0c-0.533-0.087-0.886,0.284-0.889,0.711l0,0l-0.178,2.311l-0.355-2.311l0,0
		c0.061-0.427-0.294-0.798-0.711-0.711l0,0l-2.311-0.355l2.311-0.178l0,0c0.404-0.032,0.77-0.385,0.711-0.889l0,0l0.355-2.311
		l0.178,2.311l0,0c0.005,0.511,0.356,0.855,0.889,0.889l0,0L54.415,105.85L54.415,105.85z"/>
	<path fill="#AAAAAA" d="M53.881,105.85l-1.955,0.177l0,0c-0.45,0.06-0.744,0.368-0.711,0.711l0,0l-0.178,1.956l-0.178-1.956l0,0
		c-0.073-0.343-0.367-0.652-0.711-0.711l0,0l-1.955-0.177l1.955-0.178l0,0c0.333,0.017,0.637-0.276,0.711-0.711l0,0l0.178-1.955
		l0.178,1.955l0,0c-0.03,0.44,0.261,0.727,0.711,0.711l0,0L53.881,105.85L53.881,105.85z"/>
	<path fill="#C6C6C6" d="M53.17,105.85l-1.422,0.177l0,0c-0.367,0.028-0.602,0.275-0.534,0.534l0,0l-0.178,1.6l-0.178-1.6l0,0
		c-0.029-0.259-0.264-0.506-0.533-0.534l0,0l-1.6-0.177l1.6-0.178l0,0c0.261,0.066,0.503-0.169,0.533-0.533l0,0l0.178-1.422
		l0.178,1.422l0,0c-0.066,0.369,0.167,0.598,0.534,0.533l0,0L53.17,105.85L53.17,105.85z"/>
	<path fill="#E2E2E2" d="M52.637,105.85l-1.067,0.177l0,0c-0.284-0.003-0.459,0.181-0.533,0.356l0,0v1.245l-0.178-1.245l0,0
		c0.016-0.175-0.16-0.359-0.355-0.356l0,0l-1.245-0.177h1.245l0,0c0.189-0.063,0.37-0.238,0.355-0.534l0,0l0.178-1.066v1.066l0,0
		c0.076,0.298,0.25,0.47,0.533,0.534l0,0H52.637L52.637,105.85z"/>
	<path fill="#FFFFFF" d="M50.681,105.85c0.117-0.015,0.237-0.131,0.178-0.355l0,0l0.178-0.711v0.711l0,0
		c0.039,0.227,0.155,0.34,0.355,0.355l0,0h0.711l-0.711,0.177l0,0c-0.201-0.035-0.317,0.087-0.355,0.178l0,0v0.889l-0.178-0.889l0,0
		c0.06-0.091-0.056-0.213-0.178-0.178l0,0l-0.711-0.177H50.681L50.681,105.85L50.681,105.85z"/>
	<path d="M405.17,184.605c0.971,0.05,1.642-0.599,1.6-1.422l0,0l0.534-4.266l0.355,4.266l0,0c0.037,0.835,0.682,1.469,1.6,1.422l0,0
		l4.268,0.533l-4.268,0.356l0,0c-0.918,0.04-1.567,0.724-1.6,1.6l0,0l-0.355,4.266l-0.534-4.266l0,0
		c0.047-0.876-0.604-1.561-1.6-1.6l0,0l-4.089-0.356L405.17,184.605L405.17,184.605L405.17,184.605z"/>
	<path fill="#1C1C1C" d="M412.992,185.139l-3.91,0.356l0,0c-0.835,0.008-1.427,0.63-1.423,1.422l0,0l-0.355,3.912l-0.355-3.912l0,0
		c-0.087-0.792-0.681-1.414-1.423-1.422l0,0l-3.91-0.356l3.732-0.355l0,0c0.898-0.079,1.511-0.67,1.422-1.422l0,0l0.534-3.912
		l0.355,3.912l0,0c0,0.763,0.588,1.34,1.423,1.422l0,0L412.992,185.139L412.992,185.139z"/>
	<path fill="#393939" d="M412.28,185.139l-3.377,0.356l0,0c-0.752-0.022-1.284,0.536-1.244,1.244l0,0l-0.355,3.556l-0.355-3.556l0,0
		c-0.044-0.708-0.576-1.268-1.244-1.244l0,0l-3.557-0.356l3.378-0.355l0,0c0.828-0.03,1.376-0.561,1.423-1.245l0,0l0.355-3.555
		l0.355,3.555l0,0c-0.036,0.693,0.492,1.212,1.244,1.245l0,0L412.28,185.139L412.28,185.139z"/>
	<path fill="#555555" d="M411.748,185.139l-3.022,0.356l0,0c-0.67-0.054-1.142,0.442-1.066,1.066l0,0l-0.355,3.022l-0.355-3.022l0,0
		c0.001-0.625-0.472-1.121-1.066-1.066l0,0l-3.2-0.356l3.2-0.355l0,0c0.577,0.019,1.064-0.454,1.066-1.066l0,0l0.355-3.2l0.355,3.2
		l0,0c-0.072,0.622,0.396,1.083,1.066,1.066l0,0L411.748,185.139L411.748,185.139z"/>
	<path fill="#717171" d="M411.214,185.139l-2.666,0.356l0,0c-0.586-0.085-1,0.349-1.066,0.889l0,0l-0.178,2.667l-0.355-2.667l0,0
		c0.046-0.54-0.368-0.974-0.889-0.889l0,0l-2.668-0.356l2.668-0.355l0,0c0.505,0.067,0.932-0.345,0.889-0.889l0,0l0.355-2.667
		l0.178,2.667l0,0c0.071,0.552,0.48,0.954,1.066,0.889l0,0L411.214,185.139L411.214,185.139z"/>
	<path fill="#8E8E8E" d="M410.681,185.139l-2.311,0.178l0,0c-0.504,0.061-0.856,0.433-0.889,0.889l0,0l-0.178,2.311l-0.178-2.311
		l0,0c-0.089-0.457-0.443-0.828-0.89-0.889l0,0l-2.311-0.178l2.311-0.178l0,0c0.436-0.062,0.8-0.415,0.712-0.889l0,0l0.355-2.311
		l0.178,2.311l0,0c0.035,0.48,0.385,0.826,0.889,0.889l0,0L410.681,185.139L410.681,185.139z"/>
	<path fill="#AAAAAA" d="M410.148,185.139l-1.956,0.178l0,0c-0.42,0.03-0.714,0.339-0.711,0.711l0,0l-0.178,1.956l-0.178-1.956l0,0
		c-0.044-0.372-0.339-0.681-0.712-0.711l0,0l-1.955-0.178l1.955-0.178l0,0c0.363-0.013,0.667-0.306,0.712-0.711l0,0l0.178-1.956
		l0.178,1.956l0,0c-0.001,0.41,0.291,0.697,0.711,0.711l0,0L410.148,185.139L410.148,185.139z"/>
	<path fill="#C6C6C6" d="M409.614,185.139l-1.601,0.178l0,0c-0.337-0.002-0.571,0.245-0.532,0.534l0,0l-0.178,1.6l-0.178-1.6l0,0
		c0-0.289-0.234-0.536-0.534-0.534l0,0l-1.6-0.178l1.6-0.178l0,0c0.291,0.037,0.532-0.199,0.534-0.533l0,0l0.178-1.6l0.178,1.6l0,0
		c-0.037,0.339,0.195,0.568,0.532,0.533l0,0L409.614,185.139L409.614,185.139z"/>
	<path fill="#E2E2E2" d="M408.903,185.139l-1.067,0.178l0,0c-0.253-0.033-0.43,0.151-0.354,0.355l0,0l-0.178,1.245l-0.178-1.245l0,0
		c0.045-0.204-0.131-0.389-0.356-0.355l0,0l-1.244-0.178l1.244-0.178l0,0c0.219,0.085,0.401-0.09,0.356-0.355l0,0l0.178-1.067
		l0.178,1.067l0,0c-0.073,0.269,0.102,0.44,0.354,0.355l0,0L408.903,185.139L408.903,185.139z"/>
	<path fill="#FFFFFF" d="M406.948,185.139c0.146-0.044,0.266-0.16,0.355-0.355l0,0v-0.711v0.711l0,0
		c0.068,0.198,0.184,0.311,0.355,0.355l0,0h0.711l-0.711,0.178l0,0c-0.172-0.064-0.287,0.057-0.355,0.178l0,0v0.711v-0.711l0,0
		c-0.088-0.121-0.205-0.243-0.355-0.178l0,0l-0.712-0.178H406.948L406.948,185.139L406.948,185.139z"/>
	<polygon points="0.192,491.095 0.192,425.85 466.859,425.85 466.859,491.095 0.192,491.095 	"/>
	<path d="M331.926,348.339c0.882,0.021,1.553-0.629,1.601-1.6l0,0l0.354-4.267l0.534,4.267l0,0c-0.053,0.982,0.593,1.616,1.422,1.6
		l0,0l4.267,0.533l-4.267,0.355l0,0c-0.829,0.01-1.479,0.694-1.422,1.6l0,0l-0.534,4.267l-0.354-4.267l0,0
		c-0.044-0.905-0.694-1.59-1.601-1.6l0,0l-4.267-0.355L331.926,348.339L331.926,348.339L331.926,348.339z"/>
	<path fill="#1C1C1C" d="M339.569,348.872l-3.91,0.355l0,0c-0.745-0.021-1.337,0.601-1.423,1.422l0,0l-0.355,3.911l-0.354-3.911l0,0
		c0.001-0.821-0.592-1.442-1.422-1.422l0,0l-3.912-0.355l3.912-0.533l0,0c0.809,0.069,1.42-0.522,1.422-1.422l0,0l0.354-3.734
		l0.534,3.734l0,0c-0.089,0.911,0.499,1.488,1.244,1.422l0,0L339.569,348.872L339.569,348.872z"/>
	<path fill="#393939" d="M339.037,348.872l-3.557,0.355l0,0c-0.662-0.053-1.194,0.507-1.244,1.244l0,0l-0.355,3.378l-0.354-3.378
		l0,0c0.045-0.737-0.487-1.297-1.246-1.244l0,0l-3.377-0.355l3.377-0.355l0,0c0.739-0.061,1.288-0.592,1.246-1.244l0,0l0.354-3.556
		l0.355,3.556l0,0c0.054,0.663,0.582,1.183,1.244,1.244l0,0L339.037,348.872L339.037,348.872z"/>
	<path fill="#555555" d="M338.503,348.872l-3.2,0.355l0,0c-0.58-0.084-1.052,0.412-1.066,1.066l0,0l-0.355,3.022l-0.178-3.022l0,0
		c-0.087-0.654-0.561-1.15-1.245-1.066l0,0l-3.021-0.355l3.021-0.355l0,0c0.668-0.011,1.155-0.482,1.068-1.066l0,0l0.354-3.2
		l0.355,3.2l0,0c0.018,0.592,0.486,1.053,1.066,1.066l0,0L338.503,348.872L338.503,348.872z"/>
	<path fill="#717171" d="M337.971,348.872l-2.846,0.178l0,0c-0.496,0.063-0.91,0.497-0.889,1.066l0,0l-0.355,2.667l-0.178-2.667l0,0
		c-0.042-0.569-0.456-1.003-1.066-1.066l0,0l-2.667-0.178l2.667-0.355l0,0c0.595,0.038,1.021-0.374,1.066-0.89l0,0l0.178-2.844
		l0.355,2.844l0,0c-0.017,0.522,0.393,0.925,0.889,0.89l0,0L337.971,348.872L337.971,348.872z"/>
	<path fill="#8E8E8E" d="M337.259,348.872l-2.311,0.178l0,0c-0.415,0.031-0.768,0.403-0.712,0.89l0,0l-0.355,2.311l-0.178-2.311l0,0
		c0.001-0.486-0.354-0.858-0.889-0.89l0,0l-2.311-0.178l2.311-0.355l0,0c0.523,0.087,0.889-0.268,0.889-0.711l0,0l0.178-2.311
		l0.355,2.311l0,0c-0.054,0.451,0.297,0.796,0.712,0.711l0,0L337.259,348.872L337.259,348.872z"/>
	<path fill="#AAAAAA" d="M336.725,348.872l-1.954,0.178l0,0c-0.331,0-0.625,0.31-0.712,0.711l0,0l-0.178,1.956l-0.178-1.956l0,0
		c0.046-0.401-0.249-0.711-0.711-0.711l0,0l-1.956-0.178l1.956-0.178l0,0c0.451-0.042,0.755-0.336,0.711-0.711l0,0l0.178-1.956
		l0.178,1.956l0,0c0.088,0.38,0.381,0.667,0.712,0.711l0,0L336.725,348.872L336.725,348.872z"/>
	<path fill="#C6C6C6" d="M336.192,348.872l-1.6,0.178l0,0c-0.249-0.032-0.483,0.215-0.534,0.533l0,0l-0.178,1.601v-1.601l0,0
		c-0.089-0.318-0.323-0.565-0.711-0.533l0,0l-1.422-0.178l1.422-0.178l0,0c0.38,0.007,0.621-0.228,0.533-0.533l0,0l0.178-1.6
		l0.178,1.6l0,0c0.052,0.31,0.285,0.538,0.534,0.533l0,0L336.192,348.872L336.192,348.872z"/>
	<path fill="#E2E2E2" d="M335.659,348.872l-1.244,0.178l0,0c-0.165-0.063-0.342,0.121-0.356,0.355l0,0l-0.178,1.066v-1.066l0,0
		c-0.044-0.234-0.219-0.418-0.532-0.355l0,0l-1.068-0.178l1.068-0.178l0,0c0.307,0.056,0.488-0.119,0.532-0.355l0,0v-1.066
		l0.178,1.066l0,0c0.016,0.239,0.191,0.41,0.356,0.355l0,0L335.659,348.872L335.659,348.872z"/>
	<path fill="#FFFFFF" d="M333.526,348.872c0.234-0.074,0.354-0.19,0.354-0.355l0,0v-0.711l0.178,0.711l0,0
		c-0.021,0.168,0.096,0.281,0.178,0.355l0,0h0.889h-0.889l0,0c-0.082,0.083-0.198,0.205-0.178,0.355l0,0l-0.178,0.712v-0.712l0,0
		C333.882,349.077,333.765,348.955,333.526,348.872L333.526,348.872h-0.712H333.526L333.526,348.872L333.526,348.872z"/>
	<path d="M77.17,360.25c0.822-0.039,1.494-0.688,1.422-1.6l0,0l0.533-4.267l0.355,4.267l0,0c0.067,0.923,0.712,1.558,1.6,1.6l0,0
		l4.267,0.355l-4.267,0.533l0,0c-0.888-0.05-1.539,0.635-1.6,1.6l0,0l-0.355,4.089l-0.533-4.089l0,0
		c0.075-0.965-0.576-1.649-1.422-1.6l0,0l-4.267-0.533L77.17,360.25L77.17,360.25L77.17,360.25z"/>
	<path fill="#1C1C1C" d="M84.814,360.605l-3.911,0.533l0,0c-0.805-0.08-1.396,0.542-1.422,1.422l0,0l-0.355,3.734l-0.355-3.734l0,0
		c-0.058-0.88-0.649-1.502-1.422-1.422l0,0l-3.911-0.533l3.911-0.355l0,0c0.751,0.01,1.362-0.581,1.422-1.422l0,0l0.355-3.912
		l0.355,3.912l0,0c0.031,0.853,0.617,1.43,1.422,1.422l0,0L84.814,360.605L84.814,360.605z"/>
	<path fill="#393939" d="M84.281,360.605l-3.556,0.355l0,0c-0.722,0.066-1.254,0.625-1.245,1.422l0,0l-0.355,3.378l-0.355-3.378l0,0
		c-0.013-0.797-0.546-1.355-1.245-1.422l0,0l-3.555-0.355l3.555-0.355l0,0c0.679,0.058,1.229-0.473,1.245-1.245l0,0l0.355-3.377
		l0.355,3.377l0,0c-0.005,0.782,0.522,1.302,1.245,1.245l0,0L84.281,360.605L84.281,360.605z"/>
	<path fill="#555555" d="M83.57,360.605l-3.022,0.355l0,0c-0.639,0.034-1.112,0.531-1.067,1.245l0,0l-0.355,3.021l-0.355-3.021l0,0
		c0.031-0.714-0.442-1.211-1.066-1.245l0,0l-3.2-0.355l3.2-0.177l0,0c0.607-0.071,1.095-0.543,1.066-1.245l0,0l0.355-3.022
		l0.355,3.022l0,0c-0.042,0.711,0.428,1.172,1.067,1.245l0,0L83.57,360.605L83.57,360.605z"/>
	<path fill="#717171" d="M83.037,360.605l-2.667,0.355l0,0c-0.556,0.004-0.97,0.438-0.889,1.066l0,0l-0.355,2.667l-0.355-2.667l0,0
		c0.076-0.628-0.338-1.063-0.889-1.066l0,0l-2.666-0.355l2.666-0.177l0,0c0.536-0.022,0.962-0.435,0.889-1.068l0,0l0.355-2.666
		l0.355,2.666l0,0c-0.077,0.641,0.333,1.043,0.889,1.068l0,0L83.037,360.605L83.037,360.605z"/>
	<path fill="#8E8E8E" d="M82.503,360.605l-2.311,0.355l0,0c-0.474-0.028-0.827,0.344-0.889,0.89l0,0l-0.178,2.311l-0.177-2.311l0,0
		c-0.058-0.546-0.413-0.918-0.889-0.89l0,0l-2.312-0.355l2.312-0.177l0,0c0.463,0.026,0.829-0.327,0.889-0.891l0,0l0.177-2.311
		l0.178,2.311l0,0c0.064,0.57,0.415,0.915,0.889,0.891l0,0L82.503,360.605L82.503,360.605z"/>
	<path fill="#AAAAAA" d="M81.97,360.783l-1.955,0.178l0,0c-0.391-0.06-0.685,0.25-0.711,0.712l0,0l-0.178,1.777l-0.177-1.777l0,0
		c-0.014-0.462-0.309-0.771-0.712-0.712l0,0l-1.955-0.178l1.955-0.354l0,0c0.392,0.074,0.696-0.219,0.712-0.712l0,0l0.177-1.778
		l0.178,1.956l0,0c0.028,0.321,0.32,0.607,0.711,0.534l0,0L81.97,360.783L81.97,360.783z"/>
	<path fill="#C6C6C6" d="M81.437,360.783h-1.6l0,0c-0.308,0.086-0.542,0.334-0.533,0.711l0,0l-0.178,1.423l-0.177-1.423l0,0
		c0.03-0.377-0.205-0.625-0.534-0.711l0,0h-1.6l1.6-0.178l0,0c0.32-0.053,0.562-0.287,0.534-0.533l0,0l0.177-1.601l0.178,1.601l0,0
		c-0.008,0.25,0.226,0.479,0.533,0.533l0,0L81.437,360.783L81.437,360.783z"/>
	<path fill="#E2E2E2" d="M80.903,360.783h-1.244l0,0c-0.225,0.056-0.4,0.239-0.355,0.533l0,0l-0.178,1.066l-0.177-1.066l0,0
		c0.074-0.294-0.101-0.478-0.356-0.533l0,0h-1.067l1.067-0.178l0,0c0.249-0.004,0.43-0.179,0.356-0.355l0,0l0.177-1.245l0.178,1.245
		l0,0c-0.043,0.18,0.131,0.351,0.355,0.355l0,0L80.903,360.783L80.903,360.783z"/>
	<path fill="#FFFFFF" d="M78.77,360.605c0.176,0.044,0.296-0.071,0.355-0.177l0,0v-0.891l0.178,0.891l0,0
		c-0.08,0.108,0.036,0.221,0.177,0.177l0,0l0.711,0.178h-0.711l0,0c-0.141,0.024-0.258,0.146-0.177,0.355l0,0l-0.178,0.712v-0.712
		l0,0c-0.059-0.21-0.175-0.331-0.355-0.355l0,0h-0.711L78.77,360.605L78.77,360.605L78.77,360.605z"/>
	<polygon fill="#020202" points="0.192,426.383 466.859,426.383 466.859,491.095 0.192,491.095 0.192,426.383 	"/>
	<polygon fill="#040404" points="0.192,427.095 466.859,427.095 466.859,491.095 0.192,491.095 0.192,427.095 	"/>
	<polygon fill="#070707" points="0.192,427.627 466.859,427.627 466.859,491.095 0.192,491.095 0.192,427.627 	"/>
	<polygon fill="#090909" points="0.192,428.161 466.859,428.161 466.859,491.095 0.192,491.095 0.192,428.161 	"/>
	<polygon fill="#0B0B0B" points="0.192,428.872 466.859,428.872 466.859,491.095 0.192,491.095 0.192,428.872 	"/>
	<polygon fill="#0E0E0E" points="0.192,429.405 466.859,429.405 466.859,491.095 0.192,491.095 0.192,429.405 	"/>
	<polygon fill="#101010" points="0.192,429.939 466.859,429.939 466.859,491.095 0.192,491.095 0.192,429.939 	"/>
	<polygon fill="#121212" points="0.192,430.649 466.859,430.649 466.859,491.095 0.192,491.095 0.192,430.649 	"/>
	<polygon fill="#141414" points="0.192,431.184 466.859,431.184 466.859,491.095 0.192,491.095 0.192,431.184 	"/>
	<polygon fill="#171717" points="0.192,431.717 466.859,431.717 466.859,491.095 0.192,491.095 0.192,431.717 	"/>
	<polygon fill="#191919" points="0.192,432.428 466.859,432.428 466.859,491.095 0.192,491.095 0.192,432.428 	"/>
	<polygon fill="#1B1B1B" points="0.192,432.962 466.859,432.962 466.859,491.095 0.192,491.095 0.192,432.962 	"/>
	<polygon fill="#1D1D1D" points="0.192,433.494 466.859,433.494 466.859,491.095 0.192,491.095 0.192,433.494 	"/>
	<polygon fill="#202020" points="0.192,434.206 466.859,434.206 466.859,491.095 0.192,491.095 0.192,434.206 	"/>
	<polygon fill="#222222" points="0.192,434.739 466.859,434.739 466.859,491.095 0.192,491.095 0.192,434.739 	"/>
	<polygon fill="#242424" points="0.192,435.272 466.859,435.272 466.859,491.095 0.192,491.095 0.192,435.272 	"/>
	<polygon fill="#272727" points="0.192,435.983 466.859,435.983 466.859,491.095 0.192,491.095 0.192,435.983 	"/>
	<polygon fill="#292929" points="0.192,436.517 466.859,436.517 466.859,491.095 0.192,491.095 0.192,436.517 	"/>
	<polygon fill="#2B2B2B" points="0.192,437.05 466.859,437.05 466.859,491.095 0.192,491.095 0.192,437.05 	"/>
	<polygon fill="#2D2D2D" points="0.192,437.761 466.859,437.761 466.859,491.095 0.192,491.095 0.192,437.761 	"/>
	<polygon fill="#303030" points="0.192,438.294 466.859,438.294 466.859,491.095 0.192,491.095 0.192,438.294 	"/>
	<polygon fill="#323232" points="0.192,438.828 466.859,438.828 466.859,491.095 0.192,491.095 0.192,438.828 	"/>
	<polygon fill="#343434" points="0.192,439.538 466.859,439.538 466.859,491.095 0.192,491.095 0.192,439.538 	"/>
	<polygon fill="#363636" points="0.192,440.072 466.859,440.072 466.859,491.095 0.192,491.095 0.192,440.072 	"/>
	<polygon fill="#393939" points="0.192,440.605 466.859,440.605 466.859,491.095 0.192,491.095 0.192,440.605 	"/>
	<polygon fill="#3B3B3B" points="0.192,441.316 466.859,441.316 466.859,491.095 0.192,491.095 0.192,441.316 	"/>
	<polygon fill="#3D3D3D" points="0.192,441.851 466.859,441.851 466.859,491.095 0.192,491.095 0.192,441.851 	"/>
	<polygon fill="#3F3F3F" points="0.192,442.383 466.859,442.383 466.859,491.095 0.192,491.095 0.192,442.383 	"/>
	<polygon fill="#424242" points="0.192,443.095 466.859,443.095 466.859,491.095 0.192,491.095 0.192,443.095 	"/>
	<polygon fill="#444444" points="0.192,443.628 466.859,443.628 466.859,491.095 0.192,491.095 0.192,443.628 	"/>
	<polygon fill="#464646" points="0.192,444.161 466.859,444.161 466.859,491.095 0.192,491.095 0.192,444.161 	"/>
	<polygon fill="#494949" points="0.192,444.873 466.859,444.873 466.859,491.095 0.192,491.095 0.192,444.873 	"/>
	<polygon fill="#4B4B4B" points="0.192,445.405 466.859,445.405 466.859,491.095 0.192,491.095 0.192,445.405 	"/>
	<polygon fill="#4D4D4D" points="0.192,445.938 466.859,445.938 466.859,491.095 0.192,491.095 0.192,445.938 	"/>
	<polygon fill="#4F4F4F" points="0.192,446.65 466.859,446.65 466.859,491.095 0.192,491.095 0.192,446.65 	"/>
	<polygon fill="#525252" points="0.192,447.184 466.859,447.184 466.859,491.095 0.192,491.095 0.192,447.184 	"/>
	<polygon fill="#545454" points="0.192,447.717 466.859,447.717 466.859,491.095 0.192,491.095 0.192,447.717 	"/>
	<polygon fill="#565656" points="0.192,448.428 466.859,448.428 466.859,491.095 0.192,491.095 0.192,448.428 	"/>
	<polygon fill="#585858" points="0.192,448.961 466.859,448.961 466.859,491.095 0.192,491.095 0.192,448.961 	"/>
	<polygon fill="#5B5B5B" points="0.192,449.494 466.859,449.494 466.859,491.095 0.192,491.095 0.192,449.494 	"/>
	<polygon fill="#5D5D5D" points="0.192,450.205 466.859,450.205 466.859,491.095 0.192,491.095 0.192,450.205 	"/>
	<polygon fill="#5F5F5F" points="0.192,450.739 466.859,450.739 466.859,491.095 0.192,491.095 0.192,450.739 	"/>
	<polygon fill="#626262" points="0.192,451.271 466.859,451.271 466.859,491.095 0.192,491.095 0.192,451.271 	"/>
	<polygon fill="#646464" points="0.192,451.983 466.859,451.983 466.859,491.095 0.192,491.095 0.192,451.983 	"/>
	<polygon fill="#666666" points="0.192,452.517 466.859,452.517 466.859,491.095 0.192,491.095 0.192,452.517 	"/>
	<polygon fill="#696969" points="0.192,453.05 466.859,453.05 466.859,491.095 0.192,491.095 0.192,453.05 	"/>
	<polygon fill="#6B6B6B" points="0.192,453.762 466.859,453.762 466.859,491.095 0.192,491.095 0.192,453.762 	"/>
	<polygon fill="#6D6D6D" points="0.192,454.294 466.859,454.294 466.859,491.095 0.192,491.095 0.192,454.294 	"/>
	<polygon fill="#6F6F6F" points="0.192,454.828 466.859,454.828 466.859,491.095 0.192,491.095 0.192,454.828 	"/>
	<polygon fill="#717171" points="0.192,455.539 466.859,455.539 466.859,491.095 0.192,491.095 0.192,455.539 	"/>
	<polygon fill="#747474" points="0.192,456.072 466.859,456.072 466.859,491.095 0.192,491.095 0.192,456.072 	"/>
	<polygon fill="#767676" points="0.192,456.605 466.859,456.605 466.859,491.095 0.192,491.095 0.192,456.605 	"/>
	<polygon fill="#787878" points="0.192,457.316 466.859,457.316 466.859,491.095 0.192,491.095 0.192,457.316 	"/>
	<polygon fill="#7B7B7B" points="0.192,457.851 466.859,457.851 466.859,491.095 0.192,491.095 0.192,457.851 	"/>
	<polygon fill="#7D7D7D" points="0.192,458.383 466.859,458.383 466.859,491.095 0.192,491.095 0.192,458.383 	"/>
	<polygon fill="#7F7F7F" points="0.192,459.095 466.859,459.095 466.859,491.095 0.192,491.095 0.192,459.095 	"/>
	<polygon fill="#828282" points="0.192,459.628 466.859,459.628 466.859,491.095 0.192,491.095 0.192,459.628 	"/>
	<polygon fill="#848484" points="0.192,460.16 466.859,460.16 466.859,491.095 0.192,491.095 0.192,460.16 	"/>
	<polygon fill="#868686" points="0.192,460.872 466.859,460.872 466.859,491.095 0.192,491.095 0.192,460.872 	"/>
	<polygon fill="#888888" points="0.192,461.405 466.859,461.405 466.859,491.095 0.192,491.095 0.192,461.405 	"/>
	<polygon fill="#8A8A8A" points="0.192,461.938 466.859,461.938 466.859,491.095 0.192,491.095 0.192,461.938 	"/>
	<polygon fill="#8D8D8D" points="0.192,462.65 466.859,462.65 466.859,491.095 0.192,491.095 0.192,462.65 	"/>
	<polygon fill="#8F8F8F" points="0.192,463.183 466.859,463.183 466.859,491.095 0.192,491.095 0.192,463.183 	"/>
	<polygon fill="#919191" points="0.192,463.717 466.859,463.717 466.859,491.095 0.192,491.095 0.192,463.717 	"/>
	<polygon fill="#949494" points="0.192,464.428 466.859,464.428 466.859,491.095 0.192,491.095 0.192,464.428 	"/>
	<polygon fill="#969696" points="0.192,464.961 466.859,464.961 466.859,491.095 0.192,491.095 0.192,464.961 	"/>
	<polygon fill="#989898" points="0.192,465.495 466.859,465.495 466.859,491.095 0.192,491.095 0.192,465.495 	"/>
	<polygon fill="#9B9B9B" points="0.192,466.205 466.859,466.205 466.859,491.095 0.192,491.095 0.192,466.205 	"/>
	<polygon fill="#9D9D9D" points="0.192,466.739 466.859,466.739 466.859,491.095 0.192,491.095 0.192,466.739 	"/>
	<polygon fill="#9F9F9F" points="0.192,467.272 466.859,467.272 466.859,491.095 0.192,491.095 0.192,467.272 	"/>
	<polygon fill="#A1A1A1" points="0.192,467.983 466.859,467.983 466.859,491.095 0.192,491.095 0.192,467.983 	"/>
	<polygon fill="#A3A3A3" points="0.192,468.517 466.859,468.517 466.859,491.095 0.192,491.095 0.192,468.517 	"/>
	<polygon fill="#A6A6A6" points="0.192,469.05 466.859,469.05 466.859,491.095 0.192,491.095 0.192,469.05 	"/>
	<polygon fill="#A8A8A8" points="0.192,469.762 466.859,469.762 466.859,491.095 0.192,491.095 0.192,469.762 	"/>
	<polygon fill="#AAAAAA" points="0.192,470.294 466.859,470.294 466.859,491.095 0.192,491.095 0.192,470.294 	"/>
	<polygon fill="#ADADAD" points="0.192,470.827 466.859,470.827 466.859,491.095 0.192,491.095 0.192,470.827 	"/>
	<polygon fill="#AFAFAF" points="0.192,471.539 466.859,471.539 466.859,491.095 0.192,491.095 0.192,471.539 	"/>
	<polygon fill="#B1B1B1" points="0.192,472.071 466.859,472.071 466.859,491.095 0.192,491.095 0.192,472.071 	"/>
	<polygon fill="#B4B4B4" points="0.192,472.605 466.859,472.605 466.859,491.095 0.192,491.095 0.192,472.605 	"/>
	<polygon fill="#B6B6B6" points="0.192,473.316 466.859,473.316 466.859,491.095 0.192,491.095 0.192,473.316 	"/>
	<polygon fill="#B8B8B8" points="0.192,473.85 466.859,473.85 466.859,491.095 0.192,491.095 0.192,473.85 	"/>
	<polygon fill="#BABABA" points="0.192,474.384 466.859,474.384 466.859,491.095 0.192,491.095 0.192,474.384 	"/>
	<polygon fill="#BCBCBC" points="0.192,475.094 466.859,475.094 466.859,491.095 0.192,491.095 0.192,475.094 	"/>
	<polygon fill="#BFBFBF" points="0.192,475.628 466.859,475.628 466.859,491.095 0.192,491.095 0.192,475.628 	"/>
	<polygon fill="#C1C1C1" points="0.192,476.161 466.859,476.161 466.859,491.095 0.192,491.095 0.192,476.161 	"/>
	<polygon fill="#C3C3C3" points="0.192,476.872 466.859,476.872 466.859,491.095 0.192,491.095 0.192,476.872 	"/>
	<polygon fill="#C6C6C6" points="0.192,477.406 466.859,477.406 466.859,491.095 0.192,491.095 0.192,477.406 	"/>
	<polygon fill="#C8C8C8" points="0.192,477.938 466.859,477.938 466.859,491.095 0.192,491.095 0.192,477.938 	"/>
	<polygon fill="#CACACA" points="0.192,478.65 466.859,478.65 466.859,491.095 0.192,491.095 0.192,478.65 	"/>
	<polygon fill="#CDCDCD" points="0.192,479.184 466.859,479.184 466.859,491.095 0.192,491.095 0.192,479.184 	"/>
	<polygon fill="#CFCFCF" points="0.192,479.717 466.859,479.717 466.859,491.095 0.192,491.095 0.192,479.717 	"/>
	<polygon fill="#D1D1D1" points="0.192,480.429 466.859,480.429 466.859,491.095 0.192,491.095 0.192,480.429 	"/>
	<polygon fill="#D3D3D3" points="0.192,480.961 466.859,480.961 466.859,491.095 0.192,491.095 0.192,480.961 	"/>
	<polygon fill="#D5D5D5" points="0.192,481.494 466.859,481.494 466.859,491.095 0.192,491.095 0.192,481.494 	"/>
	<polygon fill="#D8D8D8" points="0.192,482.206 466.859,482.206 466.859,491.095 0.192,491.095 0.192,482.206 	"/>
	<polygon fill="#DADADA" points="0.192,482.738 466.859,482.738 466.859,491.095 0.192,491.095 0.192,482.738 	"/>
	<polygon fill="#DCDCDC" points="0.192,483.272 466.859,483.272 466.859,491.095 0.192,491.095 0.192,483.272 	"/>
	<polygon fill="#DFDFDF" points="0.192,483.983 466.859,483.983 466.859,491.095 0.192,491.095 0.192,483.983 	"/>
	<polygon fill="#E1E1E1" points="0.192,484.517 466.859,484.517 466.859,491.095 0.192,491.095 0.192,484.517 	"/>
	<polygon fill="#E3E3E3" points="0.192,485.05 466.859,485.05 466.859,491.095 0.192,491.095 0.192,485.05 	"/>
	<polygon fill="#E6E6E6" points="0.192,491.095 0.192,485.761 466.859,485.761 466.859,491.095 0.192,491.095 	"/>
</g>
</svg>
