<svg xmlns="http://www.w3.org/2000/svg" xmlns:svg="http://www.w3.org/2000/svg" width="1000.0000000000003" height="50">
 <!-- Created with SVG-edit - http://svg-edit.googlecode.com/ -->
 <g>
  <title>Layer 1</title>
  <path id="svg_9" stroke="#7c7676" d="m48.595154,48.801426l13.075966,-36.215034l13.076027,36.215034l-26.152008,0l0.000015,0z" stroke-width="5" fill="#7f7e7e"/>
  <path id="svg_10" stroke="#7c7676" d="m27.26182,47.468098l13.075968,-36.215038l13.076019,36.215038l-26.151987,0z" stroke-width="5" fill="#7f7e7e"/>
  <path id="svg_11" stroke="#7c7676" d="m6.192821,47.639095l13.075965,-36.216015l13.076021,36.216015l-26.151986,0z" stroke-width="5" fill="#7f7e7e"/>
  <path id="svg_12" stroke="#7c7676" d="m112.023659,47.46899l13.076004,-36.21619l13.076012,36.21619l-26.152016,0l0,0z" stroke-width="5" fill="#7f7e7e"/>
  <path id="svg_13" stroke="#7c7676" d="m92.023659,47.46899l13.076004,-36.21619l13.076004,36.21619l-26.152008,0l0,0z" stroke-width="5" fill="#7f7e7e"/>
  <path id="svg_14" stroke="#7c7676" d="m70.954659,47.639004l13.076004,-36.216007l13.076004,36.216007l-26.152008,0l0,0z" stroke-width="5" fill="#7f7e7e"/>
  <path id="svg_18" stroke="#7c7676" d="m174.386414,47.897991l13.075897,-36.215801l13.075882,36.215801l-26.151779,0z" stroke-width="5" fill="#7f7e7e"/>
  <path id="svg_19" stroke="#7c7676" d="m154.386673,47.897991l13.076004,-36.215794l13.075989,36.215794l-26.151993,0l0,0z" stroke-width="5" fill="#7f7e7e"/>
  <path id="svg_20" stroke="#7c7676" d="m133.317673,48.067989l13.076004,-36.215488l13.075989,36.215488l-26.151993,0l0,0z" stroke-width="5" fill="#7f7e7e"/>
  <path id="svg_23" stroke="#7c7676" d="m194.804031,47.983387l13.075989,-36.216038l13.075989,36.216038l-26.151978,0z" stroke-width="5" fill="#7f7e7e"/>
 </g>
</svg>