<svg xmlns="http://www.w3.org/2000/svg" xmlns:svg="http://www.w3.org/2000/svg" width="1000.0000000000003" height="100">
 <!-- Created with SVG-edit - http://svg-edit.googlecode.com/ -->
 <g>
  <title>Layer 1</title>
  <path id="svg_5" stroke="#7c7676" d="m42.664112,39.553719l13.075897,-36.215805l13.075901,36.215805l-26.151798,0z" stroke-width="5" fill="#7f7e7e" transform="rotate(180 55.7401 21.446)"/>
  <path id="svg_4" stroke="#7c7676" d="m22.664104,39.553719l13.075897,-36.215828l13.075897,36.215828l-26.151794,0z" stroke-width="5" fill="#7f7e7e" transform="rotate(180 35.74 21.446)"/>
  <path stroke="#7c7676" id="svg_1" d="m1.595095,39.723991l13.07591,-36.21582l13.075884,36.21582l-26.151794,0z" stroke-width="5" fill="#7f7e7e" transform="rotate(180 14.671 21.6161)"/>
  <path transform="rotate(180 76.1577 21.531)" id="svg_11" stroke="#7c7676" d="m63.081715,39.639107l13.075962,-36.216026l13.076019,36.216026l-26.151981,0z" stroke-width="5" fill="#7f7e7e"/>
  <path id="svg_2" stroke="#7c7676" d="m125.249657,39.647774l13.075905,-36.215797l13.075897,36.215797l-26.151802,0z" stroke-width="5" fill="#7f7e7e" transform="rotate(180 138.326 21.5401)"/>
  <path id="svg_3" stroke="#7c7676" d="m105.249664,39.647774l13.075897,-36.21582l13.075897,36.21582l-26.151794,0z" stroke-width="5" fill="#7f7e7e" transform="rotate(180 118.326 21.5401)"/>
  <path id="svg_6" stroke="#7c7676" d="m84.180649,39.818062l13.075912,-36.215828l13.075882,36.215828l-26.151794,0z" stroke-width="5" fill="#7f7e7e" transform="rotate(180 97.2566 21.7101)"/>
  <path id="svg_7" transform="rotate(180 158.744 21.6251)" stroke="#7c7676" d="m145.667267,39.733162l13.075958,-36.216019l13.07605,36.216019l-26.152008,0z" stroke-width="5" fill="#7f7e7e"/>
  <path id="svg_8" stroke="#7c7676" d="m206.249695,39.647774l13.075928,-36.215797l13.075897,36.215797l-26.151825,0z" stroke-width="5" fill="#7f7e7e" transform="rotate(180 219.326 21.5401)"/>
  <path id="svg_9" stroke="#7c7676" d="m186.249695,39.647774l13.075897,-36.21582l13.075897,36.21582l-26.151794,0z" stroke-width="5" fill="#7f7e7e" transform="rotate(180 199.326 21.5401)"/>
  <path id="svg_10" stroke="#7c7676" d="m165.180695,39.818047l13.075928,-36.215813l13.075867,36.215813l-26.151794,0z" stroke-width="5" fill="#7f7e7e" transform="rotate(180 178.257 21.7101)"/>
  <path id="svg_12" transform="rotate(180 239.744 21.6251)" stroke="#7c7676" d="m226.667297,39.733162l13.075989,-36.216019l13.076035,36.216019l-26.152023,0z" stroke-width="5" fill="#7f7e7e"/>
  <path id="svg_17" stroke="#7c7676" d="m287.249695,39.647774l13.075928,-36.215797l13.075897,36.215797l-26.151825,0z" stroke-width="5" fill="#7f7e7e" transform="rotate(180 300.326 21.54)"/>
  <path id="svg_18" stroke="#7c7676" d="m267.249695,39.647774l13.075897,-36.21582l13.075897,36.21582l-26.151794,0z" stroke-width="5" fill="#7f7e7e" transform="rotate(180 280.326 21.5401)"/>
  <path id="svg_19" stroke="#7c7676" d="m246.180695,39.818047l13.075928,-36.215813l13.075867,36.215813l-26.151794,0z" stroke-width="5" fill="#7f7e7e" transform="rotate(180 259.257 21.71)"/>
  <path id="svg_20" transform="rotate(180 320.744 21.625)" stroke="#7c7676" d="m307.667297,39.733162l13.075989,-36.216019l13.076019,36.216019l-26.152008,0z" stroke-width="5" fill="#7f7e7e"/>
  <path id="svg_37" stroke="#7c7676" d="m368.956909,39.600746l13.075897,-36.215805l13.075897,36.215805l-26.151794,0z" stroke-width="5" fill="#7f7e7e" transform="rotate(180 382.033 21.493)"/>
  <path id="svg_38" stroke="#7c7676" d="m348.956909,39.600746l13.075897,-36.215828l13.075897,36.215828l-26.151794,0z" stroke-width="5" fill="#7f7e7e" transform="rotate(180 362.033 21.493)"/>
  <path id="svg_39" stroke="#7c7676" d="m327.887878,39.771019l13.075928,-36.21582l13.075867,36.21582l-26.151794,0z" stroke-width="5" fill="#7f7e7e" transform="rotate(180 340.964 21.663)"/>
  <path id="svg_40" transform="rotate(180 402.451 21.578)" stroke="#7c7676" d="m389.374512,39.686134l13.075989,-36.216026l13.075989,36.216026l-26.151978,0z" stroke-width="5" fill="#7f7e7e"/>
  <path id="svg_41" stroke="#7c7676" d="m451.54248,39.694801l13.075867,-36.215797l13.075928,36.215797l-26.151794,0z" stroke-width="5" fill="#7f7e7e" transform="rotate(180 464.619 21.587)"/>
  <path id="svg_42" stroke="#7c7676" d="m431.54248,39.694801l13.075867,-36.21582l13.075928,36.21582l-26.151794,0z" stroke-width="5" fill="#7f7e7e" transform="rotate(180 444.619 21.587)"/>
  <path id="svg_43" stroke="#7c7676" d="m410.47345,39.865089l13.075928,-36.215836l13.075867,36.215836l-26.151794,0z" stroke-width="5" fill="#7f7e7e" transform="rotate(180 423.55 21.757)"/>
  <path id="svg_44" transform="rotate(180 485.037 21.672)" stroke="#7c7676" d="m471.960083,39.78019l13.075928,-36.216019l13.07605,36.216019l-26.151978,0z" stroke-width="5" fill="#7f7e7e"/>
  <path id="svg_45" stroke="#7c7676" d="m532.54248,39.694801l13.075928,-36.215797l13.075928,36.215797l-26.151855,0z" stroke-width="5" fill="#7f7e7e" transform="rotate(180 545.619 21.587)"/>
  <path id="svg_46" stroke="#7c7676" d="m512.54248,39.694801l13.075867,-36.21582l13.075928,36.21582l-26.151794,0z" stroke-width="5" fill="#7f7e7e" transform="rotate(180 525.619 21.587)"/>
  <path id="svg_47" stroke="#7c7676" d="m491.473511,39.865074l13.075928,-36.21582l13.075806,36.21582l-26.151733,0z" stroke-width="5" fill="#7f7e7e" transform="rotate(180 504.55 21.757)"/>
  <path id="svg_48" transform="rotate(180 566.037 21.672)" stroke="#7c7676" d="m552.960083,39.78019l13.075989,-36.216019l13.07605,36.216019l-26.152039,0z" stroke-width="5" fill="#7f7e7e"/>
  <path id="svg_49" stroke="#7c7676" d="m613.54248,39.694801l13.075928,-36.215797l13.075928,36.215797l-26.151855,0z" stroke-width="5" fill="#7f7e7e" transform="rotate(180 626.619 21.587)"/>
  <path id="svg_50" stroke="#7c7676" d="m593.54248,39.694801l13.075867,-36.21582l13.075928,36.21582l-26.151794,0z" stroke-width="5" fill="#7f7e7e" transform="rotate(180 606.619 21.587)"/>
  <path id="svg_51" stroke="#7c7676" d="m572.473511,39.865074l13.075928,-36.21582l13.075806,36.21582l-26.151733,0z" stroke-width="5" fill="#7f7e7e" transform="rotate(180 585.55 21.757)"/>
  <path id="svg_52" transform="rotate(180 647.037 21.672)" stroke="#7c7676" d="m633.960083,39.78019l13.075989,-36.216019l13.07605,36.216019l-26.152039,0z" stroke-width="5" fill="#7f7e7e"/>
  <path id="svg_53" stroke="#7c7676" d="m695.206909,39.600746l13.075867,-36.215805l13.075928,36.215805l-26.151794,0z" stroke-width="5" fill="#7f7e7e" transform="rotate(180 708.283 21.493)"/>
  <path id="svg_54" stroke="#7c7676" d="m675.206909,39.600746l13.075867,-36.215828l13.075928,36.215828l-26.151794,0z" stroke-width="5" fill="#7f7e7e" transform="rotate(180 688.283 21.493)"/>
  <path id="svg_55" stroke="#7c7676" d="m654.137878,39.771019l13.075928,-36.21582l13.075867,36.21582l-26.151794,0z" stroke-width="5" fill="#7f7e7e" transform="rotate(180 667.214 21.663)"/>
  <path id="svg_56" transform="rotate(180 728.701 21.578)" stroke="#7c7676" d="m715.624512,39.686134l13.075928,-36.216026l13.07605,36.216026l-26.151978,0z" stroke-width="5" fill="#7f7e7e"/>
  <path id="svg_57" stroke="#7c7676" d="m777.79248,39.694801l13.075867,-36.215797l13.075867,36.215797l-26.151733,0z" stroke-width="5" fill="#7f7e7e" transform="rotate(180 790.869 21.587)"/>
  <path id="svg_58" stroke="#7c7676" d="m757.79248,39.694801l13.075867,-36.21582l13.075867,36.21582l-26.151733,0z" stroke-width="5" fill="#7f7e7e" transform="rotate(180 770.869 21.587)"/>
  <path id="svg_59" stroke="#7c7676" d="m736.72345,39.865089l13.075867,-36.215836l13.075928,36.215836l-26.151794,0z" stroke-width="5" fill="#7f7e7e" transform="rotate(180 749.8 21.757)"/>
  <path id="svg_60" transform="rotate(180 811.287 21.672)" stroke="#7c7676" d="m798.210083,39.78019l13.075928,-36.216019l13.07605,36.216019l-26.151978,0z" stroke-width="5" fill="#7f7e7e"/>
  <path id="svg_61" stroke="#7c7676" d="m858.79248,39.694801l13.075928,-36.215797l13.075928,36.215797l-26.151855,0z" stroke-width="5" fill="#7f7e7e" transform="rotate(180 871.869 21.587)"/>
  <path id="svg_62" stroke="#7c7676" d="m838.79248,39.694801l13.075867,-36.21582l13.075928,36.21582l-26.151794,0z" stroke-width="5" fill="#7f7e7e" transform="rotate(180 851.869 21.587)"/>
  <path id="svg_63" stroke="#7c7676" d="m817.723511,39.865074l13.075928,-36.21582l13.075806,36.21582l-26.151733,0z" stroke-width="5" fill="#7f7e7e" transform="rotate(180 830.8 21.757)"/>
  <path id="svg_64" transform="rotate(180 892.287 21.672)" stroke="#7c7676" d="m879.210083,39.78019l13.075989,-36.216019l13.075989,36.216019l-26.151978,0z" stroke-width="5" fill="#7f7e7e"/>
  <path id="svg_65" stroke="#7c7676" d="m939.79248,39.694801l13.075928,-36.215797l13.075928,36.215797l-26.151855,0z" stroke-width="5" fill="#7f7e7e" transform="rotate(180 952.869 21.587)"/>
  <path id="svg_66" stroke="#7c7676" d="m919.79248,39.694801l13.075867,-36.21582l13.075928,36.21582l-26.151794,0z" stroke-width="5" fill="#7f7e7e" transform="rotate(180 932.869 21.587)"/>
  <path id="svg_67" stroke="#7c7676" d="m898.723511,39.865074l13.075928,-36.21582l13.075806,36.21582l-26.151733,0z" stroke-width="5" fill="#7f7e7e" transform="rotate(180 911.8 21.757)"/>
  <path id="svg_68" transform="rotate(180 973.287 21.672)" stroke="#7c7676" d="m960.210083,39.78019l13.075989,-36.216019l13.075989,36.216019l-26.151978,0z" stroke-width="5" fill="#7f7e7e"/>
 </g>
</svg>